<svg width="32" height="32" viewBox="0 0 32 32" fill="none" xmlns="http://www.w3.org/2000/svg">
<g clip-path="url(#clip0_4288_9619)">
<path d="M27.3335 22.3335H24.3335V19.3335C24.3335 18.7868 23.8802 18.3335 23.3335 18.3335C22.7868 18.3335 22.3335 18.7868 22.3335 19.3335V22.3335H19.3335C18.7868 22.3335 18.3335 22.7868 18.3335 23.3335C18.3335 23.8802 18.7868 24.3335 19.3335 24.3335H22.3335V27.3335C22.3335 27.8802 22.7868 28.3335 23.3335 28.3335C23.8802 28.3335 24.3335 27.8802 24.3335 27.3335V24.3335H27.3335C27.8802 24.3335 28.3335 23.8802 28.3335 23.3335C28.3335 22.7868 27.8802 22.3335 27.3335 22.3335Z" fill="#FAF9F9"/>
<path opacity="0.4" d="M29.3333 11.3598V5.3065C29.3333 3.4265 28.48 2.6665 26.36 2.6665H20.9733C18.8533 2.6665 18 3.4265 18 5.3065V11.3465C18 13.2398 18.8533 13.9865 20.9733 13.9865H26.36C28.48 13.9998 29.3333 13.2398 29.3333 11.3598Z" fill="#FAF9F9"/>
<path d="M13.9998 11.3598V5.3065C13.9998 3.4265 13.1465 2.6665 11.0265 2.6665H5.63984C3.51984 2.6665 2.6665 3.4265 2.6665 5.3065V11.3465C2.6665 13.2398 3.51984 13.9865 5.63984 13.9865H11.0265C13.1465 13.9998 13.9998 13.2398 13.9998 11.3598Z" fill="#FAF9F9"/>
<path opacity="0.4" d="M13.9998 26.36V20.9733C13.9998 18.8533 13.1465 18 11.0265 18H5.63984C3.51984 18 2.6665 18.8533 2.6665 20.9733V26.36C2.6665 28.48 3.51984 29.3333 5.63984 29.3333H11.0265C13.1465 29.3333 13.9998 28.48 13.9998 26.36Z" fill="#FAF9F9"/>
</g>
<defs>
<clipPath id="clip0_4288_9619">
<rect width="32" height="32" fill="white"/>
</clipPath>
</defs>
</svg>
