<svg width="40" height="41" viewBox="0 0 40 41" fill="none" xmlns="http://www.w3.org/2000/svg">
<path opacity="0.4" d="M25.5868 7.14795H14.4268C9.57351 7.14795 6.68018 10.0413 6.68018 14.8946V26.0546C6.68018 30.9079 9.57351 33.8013 14.4268 33.8013H25.5868C30.4402 33.8013 33.3335 30.9079 33.3335 26.0546V14.8946C33.3335 10.0413 30.4402 7.14795 25.5868 7.14795Z" fill="#FAF9F9"/>
<path d="M17.4801 19.3481H13.9467C13.1067 19.3481 12.4268 20.0281 12.4268 20.8681V27.6947H17.4801V19.3481Z" fill="#FAF9F9"/>
<path opacity="0.4" d="M21.0135 13.2812H18.9868C18.1468 13.2812 17.4668 13.9613 17.4668 14.8013V27.6813H22.5201V14.8013C22.5201 13.9613 21.8535 13.2812 21.0135 13.2812Z" fill="#FAF9F9"/>
<path d="M26.0665 21.6147H22.5332V27.6815H27.5865V23.1348C27.5732 22.2948 26.8932 21.6147 26.0665 21.6147Z" fill="#FAF9F9"/>
</svg>
