<svg width="32" height="32" viewBox="0 0 32 32" fill="none" xmlns="http://www.w3.org/2000/svg">
<g clip-path="url(#clip0_4288_9627)">
<path opacity="0.4" d="M15.9998 29.3332C23.3636 29.3332 29.3332 23.3636 29.3332 15.9998C29.3332 8.63604 23.3636 2.6665 15.9998 2.6665C8.63604 2.6665 2.6665 8.63604 2.6665 15.9998C2.6665 23.3636 8.63604 29.3332 15.9998 29.3332Z" fill="#FAF9F9"/>
<path d="M23 13.5732V17.0799C23 17.3065 22.9867 17.5199 22.96 17.7332C22.76 20.0932 21.36 21.2666 18.8 21.2666H18.4533C18.24 21.2666 18.0267 21.3732 17.8934 21.5465L16.84 22.9465C16.3733 23.5732 15.6267 23.5732 15.16 22.9465L14.1066 21.5465C13.9866 21.3999 13.7333 21.2666 13.5467 21.2666H13.2C10.4 21.2666 9 20.5732 9 17.0665V13.5599C9 10.9999 10.1867 9.59986 12.5333 9.39986C12.7467 9.37319 12.96 9.35986 13.1867 9.35986H18.7867C21.6 9.38653 23 10.7865 23 13.5732Z" fill="#FAF9F9"/>
</g>
<defs>
<clipPath id="clip0_4288_9627">
<rect width="32" height="32" fill="white"/>
</clipPath>
</defs>
</svg>
