<svg width="40" height="41" viewBox="0 0 40 41" fill="none" xmlns="http://www.w3.org/2000/svg">
<path opacity="0.4" d="M26.6665 16.4813C26.6665 21.6413 22.1865 25.8146 16.6665 25.8146L15.4265 27.3079L14.6932 28.188C14.0665 28.9347 12.8665 28.7746 12.4532 27.8813L10.6665 23.9479C8.23984 22.2413 6.6665 19.5346 6.6665 16.4813C6.6665 11.3213 11.1465 7.14795 16.6665 7.14795C20.6932 7.14795 24.1732 9.37463 25.7332 12.5746C26.3332 13.7613 26.6665 15.0813 26.6665 16.4813Z" fill="#FAF9F9"/>
<path d="M33.3334 21.628C33.3334 24.6813 31.7601 27.3881 29.3334 29.0947L27.5468 33.028C27.1334 33.9213 25.9334 34.0947 25.3067 33.3347L23.3334 30.9613C20.1067 30.9613 17.2268 29.5347 15.4268 27.308L16.6667 25.8147C22.1867 25.8147 26.6667 21.6414 26.6667 16.4814C26.6667 15.0814 26.3334 13.7614 25.7334 12.5747C30.0934 13.5747 33.3334 17.2547 33.3334 21.628Z" fill="#FAF9F9"/>
<path d="M20.0002 17.4814H13.3335C12.7868 17.4814 12.3335 17.0281 12.3335 16.4814C12.3335 15.9348 12.7868 15.4814 13.3335 15.4814H20.0002C20.5468 15.4814 21.0002 15.9348 21.0002 16.4814C21.0002 17.0281 20.5468 17.4814 20.0002 17.4814Z" fill="#FAF9F9"/>
</svg>
