<svg width="40" height="41" viewBox="0 0 40 41" fill="none" xmlns="http://www.w3.org/2000/svg">
<path d="M13.3335 12.1479C12.7868 12.1479 12.3335 11.6946 12.3335 11.1479V7.14795C12.3335 6.60128 12.7868 6.14795 13.3335 6.14795C13.8802 6.14795 14.3335 6.60128 14.3335 7.14795V11.1479C14.3335 11.6946 13.8802 12.1479 13.3335 12.1479Z" fill="#FAF9F9"/>
<path d="M24 12.1479C23.4533 12.1479 23 11.6946 23 11.1479V7.14795C23 6.60128 23.4533 6.14795 24 6.14795C24.5467 6.14795 25 6.60128 25 7.14795V11.1479C25 11.6946 24.5467 12.1479 24 12.1479Z" fill="#FAF9F9"/>
<path opacity="0.4" d="M30.6665 15.8146V27.1479C30.6665 31.1479 28.6665 33.8146 23.9998 33.8146H13.3332C8.6665 33.8146 6.6665 31.1479 6.6665 27.1479V15.8146C6.6665 11.8146 8.6665 9.14795 13.3332 9.14795H23.9998C28.6665 9.14795 30.6665 11.8146 30.6665 15.8146Z" fill="#FAF9F9"/>
<path d="M21.3335 20.1479H13.3335C12.7868 20.1479 12.3335 19.6946 12.3335 19.1479C12.3335 18.6013 12.7868 18.1479 13.3335 18.1479H21.3335C21.8802 18.1479 22.3335 18.6013 22.3335 19.1479C22.3335 19.6946 21.8802 20.1479 21.3335 20.1479Z" fill="#FAF9F9"/>
<path d="M17.3335 26.8149H13.3335C12.7868 26.8149 12.3335 26.3616 12.3335 25.8149C12.3335 25.2683 12.7868 24.8149 13.3335 24.8149H17.3335C17.8802 24.8149 18.3335 25.2683 18.3335 25.8149C18.3335 26.3616 17.8802 26.8149 17.3335 26.8149Z" fill="#FAF9F9"/>
<path d="M31.9998 22.6546C30.8132 21.708 29.3065 21.1479 27.6665 21.1479C26.0265 21.1479 24.4932 21.7212 23.2932 22.6946C21.6798 23.9612 20.6665 25.9479 20.6665 28.1479C20.6665 29.4546 21.0399 30.708 21.6799 31.748C22.1732 32.5613 22.8132 33.268 23.5732 33.8146C24.7198 34.6546 26.1332 35.1479 27.6665 35.1479C29.4398 35.1479 31.0399 34.4946 32.2665 33.4013C32.8132 32.948 33.2798 32.388 33.6532 31.748C34.2932 30.708 34.6665 29.4546 34.6665 28.1479C34.6665 25.9213 33.6265 23.9346 31.9998 22.6546ZM27.6665 31.4813C27.6665 29.6413 26.1732 28.1479 24.3332 28.1479C26.1732 28.1479 27.6665 26.6546 27.6665 24.8146C27.6665 26.6546 29.1598 28.1479 30.9998 28.1479C29.1598 28.1479 27.6665 29.6413 27.6665 31.4813Z" fill="#FAF9F9"/>
</svg>
