<svg width="40" height="40" viewBox="0 0 40 40" fill="none" xmlns="http://www.w3.org/2000/svg">
<path d="M25.6668 34.0002C26.9555 34.0002 28.0002 32.9555 28.0002 31.6668C28.0002 30.3782 26.9555 29.3335 25.6668 29.3335C24.3782 29.3335 23.3335 30.3782 23.3335 31.6668C23.3335 32.9555 24.3782 34.0002 25.6668 34.0002Z" fill="#FAF9F9"/>
<path d="M14.9998 34.0002C16.2885 34.0002 17.3332 32.9555 17.3332 31.6668C17.3332 30.3782 16.2885 29.3335 14.9998 29.3335C13.7112 29.3335 12.6665 30.3782 12.6665 31.6668C12.6665 32.9555 13.7112 34.0002 14.9998 34.0002Z" fill="#FAF9F9"/>
<path opacity="0.4" d="M10.4532 9.25317L10.1865 12.5198C10.1332 13.1465 10.6265 13.6665 11.2532 13.6665H31.6665C32.2265 13.6665 32.6932 13.2398 32.7332 12.6798C32.9065 10.3198 31.1065 8.39984 28.7465 8.39984H12.3865C12.2532 7.81317 11.9865 7.25317 11.5732 6.7865C10.9198 6.07983 9.98651 5.6665 9.02651 5.6665H6.6665C6.11984 5.6665 5.6665 6.11984 5.6665 6.6665C5.6665 7.21317 6.11984 7.6665 6.6665 7.6665H8.98651C9.39984 7.6665 9.78651 7.83985 10.0665 8.13318C10.3465 8.43985 10.4798 8.83984 10.4532 9.25317Z" fill="#FAF9F9"/>
<path d="M31.3464 15.6665H10.8931C10.3331 15.6665 9.87975 16.0932 9.82641 16.6398L9.34641 22.4398C9.15975 24.7065 10.9464 26.6665 13.2264 26.6665H28.0531C30.0531 26.6665 31.8131 25.0265 31.9598 23.0265L32.3998 16.7998C32.4531 16.1865 31.9731 15.6665 31.3464 15.6665Z" fill="#FAF9F9"/>
</svg>
