<svg width="14" height="15" viewBox="0 0 14 15" fill="none" xmlns="http://www.w3.org/2000/svg">
<path opacity="0.4" d="M9.44425 1.98315H4.55591C2.43258 1.98315 1.16675 3.24899 1.16675 5.37232V10.2548C1.16675 12.384 2.43258 13.6498 4.55591 13.6498H9.43841C11.5617 13.6498 12.8276 12.384 12.8276 10.2607V5.37232C12.8334 3.24899 11.5676 1.98315 9.44425 1.98315Z" fill="#FAF9F9"/>
<path d="M4.27598 9.70641C4.18265 9.70641 4.08931 9.67724 4.00765 9.61308C3.81515 9.46724 3.78015 9.19308 3.92598 9.00058L5.31431 7.19808C5.48348 6.98224 5.72265 6.84224 5.99681 6.80724C6.26515 6.77224 6.53931 6.84808 6.75515 7.01724L7.82265 7.85724C7.86348 7.89224 7.90431 7.89224 7.93348 7.88641C7.95681 7.88641 7.99765 7.87474 8.03265 7.82808L9.38015 6.08974C9.52598 5.89724 9.80598 5.86224 9.99265 6.01391C10.1851 6.15974 10.2201 6.43391 10.0685 6.62641L8.72098 8.36474C8.55181 8.58058 8.31265 8.72058 8.03848 8.74974C7.76431 8.78474 7.49598 8.70891 7.28015 8.53974L6.21265 7.69974C6.17181 7.66474 6.12515 7.66474 6.10181 7.67058C6.07848 7.67058 6.03765 7.68224 6.00265 7.72891L4.61431 9.53141C4.53848 9.64808 4.41015 9.70641 4.27598 9.70641Z" fill="#FAF9F9"/>
</svg>
