<svg width="18" height="19" viewBox="0 0 18 19" fill="none" xmlns="http://www.w3.org/2000/svg">
<path d="M12.5625 3.4864V2.31641C12.5625 2.00891 12.3075 1.75391 12 1.75391C11.6925 1.75391 11.4375 2.00891 11.4375 2.31641V3.44141H6.56254V2.31641C6.56254 2.00891 6.30754 1.75391 6.00004 1.75391C5.69254 1.75391 5.43754 2.00891 5.43754 2.31641V3.4864C3.41254 3.6739 2.43005 4.8814 2.28005 6.6739C2.26505 6.8914 2.44505 7.0714 2.65505 7.0714H15.345C15.5625 7.0714 15.7425 6.8839 15.72 6.6739C15.57 4.8814 14.5875 3.6739 12.5625 3.4864Z" fill="#FAF9F9"/>
<path opacity="0.4" d="M15 8.19629C15.4125 8.19629 15.75 8.53379 15.75 8.94629V13.5663C15.75 15.8163 14.625 17.3163 12 17.3163H6C3.375 17.3163 2.25 15.8163 2.25 13.5663V8.94629C2.25 8.53379 2.5875 8.19629 3 8.19629H15Z" fill="#FAF9F9"/>
<path d="M6.375 12.0663C6.2775 12.0663 6.18 12.0438 6.09 12.0063C6 11.9688 5.91751 11.9163 5.84251 11.8488C5.77501 11.7738 5.72249 11.6913 5.68499 11.6013C5.64749 11.5113 5.625 11.4138 5.625 11.3163C5.625 11.2188 5.64749 11.1213 5.68499 11.0313C5.72249 10.9413 5.77501 10.8588 5.84251 10.7838C5.91751 10.7163 6 10.6638 6.09 10.6263C6.27 10.5513 6.48 10.5513 6.66 10.6263C6.75 10.6638 6.83249 10.7163 6.90749 10.7838C6.97499 10.8588 7.02751 10.9413 7.06501 11.0313C7.10251 11.1213 7.125 11.2188 7.125 11.3163C7.125 11.4138 7.10251 11.5113 7.06501 11.6013C7.02751 11.6913 6.97499 11.7738 6.90749 11.8488C6.83249 11.9163 6.75 11.9688 6.66 12.0063C6.57 12.0438 6.4725 12.0663 6.375 12.0663Z" fill="#FAF9F9"/>
<path d="M9 12.0663C8.9025 12.0663 8.805 12.0438 8.715 12.0063C8.625 11.9688 8.54251 11.9163 8.46751 11.8488C8.33251 11.7063 8.25 11.5113 8.25 11.3163C8.25 11.1213 8.33251 10.9263 8.46751 10.7838C8.54251 10.7163 8.625 10.6638 8.715 10.6263C8.895 10.5438 9.105 10.5438 9.285 10.6263C9.375 10.6638 9.45749 10.7163 9.53249 10.7838C9.66749 10.9263 9.75 11.1213 9.75 11.3163C9.75 11.5113 9.66749 11.7063 9.53249 11.8488C9.45749 11.9163 9.375 11.9688 9.285 12.0063C9.195 12.0438 9.0975 12.0663 9 12.0663Z" fill="#FAF9F9"/>
<path d="M6.375 14.6913C6.2775 14.6913 6.18 14.6688 6.09 14.6313C6 14.5938 5.91751 14.5413 5.84251 14.4738C5.70751 14.3313 5.625 14.1363 5.625 13.9413C5.625 13.7463 5.70751 13.5513 5.84251 13.4088C5.91751 13.3413 6 13.2888 6.09 13.2513C6.27 13.1763 6.48 13.1763 6.66 13.2513C6.75 13.2888 6.83249 13.3413 6.90749 13.4088C7.04249 13.5513 7.125 13.7463 7.125 13.9413C7.125 14.1363 7.04249 14.3313 6.90749 14.4738C6.83249 14.5413 6.75 14.5938 6.66 14.6313C6.57 14.6688 6.4725 14.6913 6.375 14.6913Z" fill="#FAF9F9"/>
</svg>
