<svg width="18" height="19" viewBox="0 0 18 19" fill="none" xmlns="http://www.w3.org/2000/svg">
<path opacity="0.4" d="M12.1425 2.31641H5.8575C3.1275 2.31641 1.5 3.94391 1.5 6.67391V12.9514C1.5 15.6889 3.1275 17.3164 5.8575 17.3164H12.135C14.865 17.3164 16.4925 15.6889 16.4925 12.9589V6.67391C16.5 3.94391 14.8725 2.31641 12.1425 2.31641Z" fill="#FAF9F9"/>
<path d="M12.3149 6.67395V12.959C12.3149 13.439 11.9249 13.829 11.4449 13.829C10.9574 13.829 10.5674 13.439 10.5674 12.959V6.67395C10.5674 6.19395 10.9574 5.80396 11.4449 5.80396C11.9249 5.80396 12.3149 6.19395 12.3149 6.67395Z" fill="#FAF9F9"/>
<path d="M7.43256 10.5138V12.9588C7.43256 13.4388 7.04256 13.8288 6.55506 13.8288C6.07506 13.8288 5.68506 13.4388 5.68506 12.9588V10.5138C5.68506 10.0338 6.07506 9.6438 6.55506 9.6438C7.04256 9.6438 7.43256 10.0338 7.43256 10.5138Z" fill="#FAF9F9"/>
</svg>
