<svg width="63" height="63" viewBox="0 0 63 63" fill="none" xmlns="http://www.w3.org/2000/svg">
<rect x="1" y="1.31641" width="61" height="61" rx="30.5" stroke="white" stroke-opacity="0.15"/>
<rect x="9.5" y="9.81641" width="44" height="44" rx="22" fill="url(#paint0_linear_4204_17137)" fill-opacity="0.15"/>
<rect x="10" y="10.3164" width="43" height="43" rx="21.5" stroke="url(#paint1_linear_4204_17137)" stroke-opacity="0.2"/>
<rect x="10" y="10.3164" width="43" height="43" rx="21.5" stroke="url(#paint2_linear_4204_17137)" stroke-opacity="0.3"/>
<g clip-path="url(#clip0_4204_17137)">
<path fill-rule="evenodd" clip-rule="evenodd" d="M31.4958 20.4165C28.6648 20.418 25.9266 21.4207 23.7709 23.2453C21.6151 25.0699 20.1824 27.5975 19.7289 30.3761C19.2754 33.1546 19.8306 36.003 21.2954 38.4119C22.7602 40.8207 25.0389 42.633 27.7241 43.5246C28.3166 43.6345 28.5397 43.2674 28.5397 42.9552C28.5397 42.643 28.5278 41.7378 28.5239 40.7482C25.2064 41.4649 24.5054 39.3483 24.5054 39.3483C23.9643 37.9739 23.1823 37.6126 23.1823 37.6126C22.1002 36.8782 23.2633 36.892 23.2633 36.892C24.4619 36.9764 25.0919 38.1152 25.0919 38.1152C26.1543 39.9275 27.8821 39.4033 28.5614 39.097C28.6681 38.3292 28.9781 37.807 29.3197 37.5105C26.6697 37.212 23.8853 36.195 23.8853 31.6515C23.8689 30.4732 24.3087 29.3336 25.1136 28.4687C24.9912 28.1703 24.5824 26.9647 25.2301 25.3271C25.2301 25.3271 26.2313 25.0091 28.5101 26.5425C30.4647 26.0111 32.527 26.0111 34.4816 26.5425C36.7584 25.0091 37.7576 25.3271 37.7576 25.3271C38.4073 26.9608 37.9985 28.1663 37.8761 28.4687C38.6836 29.3338 39.1243 30.4753 39.1063 31.6554C39.1063 36.2087 36.3161 37.212 33.6621 37.5046C34.0886 37.8737 34.4697 38.5943 34.4697 39.7017C34.4697 41.2882 34.4559 42.5645 34.4559 42.9552C34.4559 43.2713 34.6711 43.6404 35.2754 43.5246C37.961 42.6329 40.2399 40.8203 41.7047 38.411C43.1694 36.0017 43.7244 33.1529 43.2703 30.3741C42.8163 27.5953 41.3829 25.0677 39.2264 23.2434C37.07 21.4191 34.3311 20.417 31.4998 20.4165H31.4958Z" fill="white"/>
<path d="M24.0864 37.4419C24.0608 37.5008 23.966 37.5185 23.889 37.4772C23.8119 37.436 23.7547 37.3594 23.7823 37.2986C23.81 37.2377 23.9028 37.222 23.9798 37.2632C24.0568 37.3045 24.1161 37.383 24.0864 37.4419Z" fill="white"/>
<path d="M24.5703 37.9777C24.5294 37.9982 24.4826 38.0039 24.4379 37.9938C24.3933 37.9838 24.3535 37.9587 24.3254 37.9227C24.2484 37.8402 24.2326 37.7263 24.2918 37.6753C24.3511 37.6242 24.4577 37.6478 24.5347 37.7303C24.6117 37.8127 24.6295 37.9266 24.5703 37.9777Z" fill="white"/>
<path d="M25.0403 38.6589C24.9672 38.71 24.8428 38.6589 24.7737 38.5568C24.7546 38.5385 24.7394 38.5166 24.729 38.4923C24.7186 38.468 24.7133 38.4419 24.7133 38.4155C24.7133 38.3891 24.7186 38.363 24.729 38.3387C24.7394 38.3144 24.7546 38.2924 24.7737 38.2741C24.8468 38.225 24.9712 38.2741 25.0403 38.3742C25.1094 38.4744 25.1114 38.6079 25.0403 38.6589Z" fill="white"/>
<path d="M25.6781 39.3186C25.6129 39.3912 25.4806 39.3716 25.372 39.2734C25.2634 39.1753 25.2377 39.0417 25.3029 38.9711C25.3681 38.9004 25.5004 38.92 25.6129 39.0162C25.7255 39.1124 25.7472 39.2479 25.6781 39.3186Z" fill="white"/>
<path d="M26.5726 39.7036C26.543 39.7959 26.4087 39.8371 26.2744 39.7979C26.1401 39.7586 26.0513 39.6487 26.0769 39.5544C26.1026 39.4602 26.2389 39.417 26.3751 39.4602C26.5114 39.5034 26.5983 39.6074 26.5726 39.7036Z" fill="white"/>
<path d="M27.5482 39.7705C27.5482 39.8667 27.4376 39.9492 27.2954 39.9511C27.1533 39.9531 27.0367 39.8745 27.0367 39.7783C27.0367 39.6821 27.1473 39.5997 27.2895 39.5977C27.4317 39.5957 27.5482 39.6723 27.5482 39.7705Z" fill="white"/>
<path d="M28.4565 39.6194C28.4743 39.7156 28.3756 39.8158 28.2334 39.8393C28.0912 39.8629 27.9668 39.806 27.949 39.7117C27.9313 39.6175 28.0339 39.5154 28.1722 39.4898C28.3104 39.4643 28.4388 39.5232 28.4565 39.6194Z" fill="white"/>
</g>
<defs>
<linearGradient id="paint0_linear_4204_17137" x1="67.5345" y1="-3.83876" x2="9.5" y2="53.8164" gradientUnits="userSpaceOnUse">
<stop offset="0.545273" stop-color="white" stop-opacity="0"/>
<stop offset="1" stop-color="white"/>
</linearGradient>
<linearGradient id="paint1_linear_4204_17137" x1="53.5" y1="9.8164" x2="9.5" y2="53.8164" gradientUnits="userSpaceOnUse">
<stop stop-color="white"/>
<stop offset="0.419845" stop-color="white" stop-opacity="0"/>
</linearGradient>
<linearGradient id="paint2_linear_4204_17137" x1="53.5" y1="9.8164" x2="9.5" y2="53.8164" gradientUnits="userSpaceOnUse">
<stop offset="0.710304" stop-color="white" stop-opacity="0"/>
<stop offset="0.89681" stop-color="white"/>
</linearGradient>
<clipPath id="clip0_4204_17137">
<rect width="24" height="24" fill="white" transform="translate(19.5 19.8164)"/>
</clipPath>
</defs>
</svg>
