<svg width="63" height="63" viewBox="0 0 63 63" fill="none" xmlns="http://www.w3.org/2000/svg">
<rect x="1" y="1.31641" width="61" height="61" rx="30.5" stroke="white" stroke-opacity="0.15"/>
<rect x="9.5" y="9.81641" width="44" height="44" rx="22" fill="url(#paint0_linear_4204_17153)" fill-opacity="0.15"/>
<rect x="10" y="10.3164" width="43" height="43" rx="21.5" stroke="url(#paint1_linear_4204_17153)" stroke-opacity="0.2"/>
<rect x="10" y="10.3164" width="43" height="43" rx="21.5" stroke="url(#paint2_linear_4204_17153)" stroke-opacity="0.3"/>
<g clip-path="url(#clip0_4204_17153)">
<path d="M33.0374 32.044C33.0374 35.8147 30.0069 38.8715 26.2688 38.8715C22.5307 38.8715 19.5 35.814 19.5 32.044C19.5 28.274 22.5305 25.2163 26.2688 25.2163C30.0072 25.2163 33.0374 28.2733 33.0374 32.044Z" fill="white"/>
<path d="M40.4628 32.044C40.4628 35.5933 38.9476 38.4717 37.0784 38.4717C35.2092 38.4717 33.694 35.5933 33.694 32.044C33.694 28.4946 35.209 25.6162 37.0782 25.6162C38.9473 25.6162 40.4626 28.4937 40.4626 32.044" fill="white"/>
<path d="M43.5 32.0439C43.5 35.2232 42.9672 37.8021 42.3097 37.8021C41.6522 37.8021 41.1196 35.2239 41.1196 32.0439C41.1196 28.8639 41.6525 26.2856 42.3097 26.2856C42.967 26.2856 43.5 28.8637 43.5 32.0439Z" fill="white"/>
</g>
<defs>
<linearGradient id="paint0_linear_4204_17153" x1="67.5345" y1="-3.83876" x2="9.5" y2="53.8164" gradientUnits="userSpaceOnUse">
<stop offset="0.545273" stop-color="white" stop-opacity="0"/>
<stop offset="1" stop-color="white"/>
</linearGradient>
<linearGradient id="paint1_linear_4204_17153" x1="53.5" y1="9.8164" x2="9.5" y2="53.8164" gradientUnits="userSpaceOnUse">
<stop stop-color="white"/>
<stop offset="0.419845" stop-color="white" stop-opacity="0"/>
</linearGradient>
<linearGradient id="paint2_linear_4204_17153" x1="53.5" y1="9.8164" x2="9.5" y2="53.8164" gradientUnits="userSpaceOnUse">
<stop offset="0.710304" stop-color="white" stop-opacity="0"/>
<stop offset="0.89681" stop-color="white"/>
</linearGradient>
<clipPath id="clip0_4204_17153">
<rect width="24" height="24" fill="white" transform="translate(19.5 19.8164)"/>
</clipPath>
</defs>
</svg>
