<svg width="63" height="63" viewBox="0 0 63 63" fill="none" xmlns="http://www.w3.org/2000/svg">
<rect x="1" y="1.31641" width="61" height="61" rx="30.5" stroke="white" stroke-opacity="0.15"/>
<rect x="9.5" y="9.81641" width="44" height="44" rx="22" fill="url(#paint0_linear_4204_17149)" fill-opacity="0.15"/>
<rect x="10" y="10.3164" width="43" height="43" rx="21.5" stroke="url(#paint1_linear_4204_17149)" stroke-opacity="0.2"/>
<rect x="10" y="10.3164" width="43" height="43" rx="21.5" stroke="url(#paint2_linear_4204_17149)" stroke-opacity="0.3"/>
<g clip-path="url(#clip0_4204_17149)">
<path d="M42.5807 18.8164H20.4193C19.9103 18.8164 19.4221 19.0186 19.0622 19.3786C18.7022 19.7385 18.5 20.2267 18.5 20.7357V42.8971C18.5 43.4061 18.7022 43.8943 19.0622 44.2543C19.4221 44.6142 19.9103 44.8164 20.4193 44.8164H42.5807C43.0897 44.8164 43.5779 44.6142 43.9379 44.2543C44.2978 43.8943 44.5 43.4061 44.5 42.8971V20.7357C44.5 20.2267 44.2978 19.7385 43.9379 19.3786C43.5779 19.0186 43.0897 18.8164 42.5807 18.8164ZM26.2494 40.9652H22.3404V28.5484H26.2494V40.9652ZM24.2922 26.8277C23.8488 26.8252 23.4161 26.6914 23.0486 26.4432C22.6812 26.195 22.3955 25.8435 22.2276 25.4331C22.0597 25.0227 22.0172 24.5717 22.1054 24.1371C22.1935 23.7026 22.4085 23.3039 22.723 22.9913C23.0376 22.6788 23.4376 22.4664 23.8728 22.3811C24.3079 22.2957 24.7585 22.3411 25.1679 22.5116C25.5772 22.6821 25.9268 22.9701 26.1727 23.3391C26.4185 23.7082 26.5495 24.1417 26.5492 24.5852C26.5534 24.882 26.4977 25.1767 26.3856 25.4516C26.2735 25.7265 26.1071 25.976 25.8965 26.1853C25.6859 26.3946 25.4353 26.5593 25.1597 26.6697C24.8841 26.78 24.5891 26.8337 24.2922 26.8277ZM40.6578 40.976H36.7506V34.1925C36.7506 32.192 35.9001 31.5745 34.8024 31.5745C33.6432 31.5745 32.5057 32.4484 32.5057 34.2431V40.976H28.5967V28.5574H32.3558V30.2781H32.4064C32.7838 29.5143 34.1054 28.2089 36.1222 28.2089C38.3033 28.2089 40.6596 29.5035 40.6596 33.2952L40.6578 40.976Z" fill="white"/>
</g>
<defs>
<linearGradient id="paint0_linear_4204_17149" x1="67.5345" y1="-3.83876" x2="9.5" y2="53.8164" gradientUnits="userSpaceOnUse">
<stop offset="0.545273" stop-color="white" stop-opacity="0"/>
<stop offset="1" stop-color="white"/>
</linearGradient>
<linearGradient id="paint1_linear_4204_17149" x1="53.5" y1="9.8164" x2="9.5" y2="53.8164" gradientUnits="userSpaceOnUse">
<stop stop-color="white"/>
<stop offset="0.419845" stop-color="white" stop-opacity="0"/>
</linearGradient>
<linearGradient id="paint2_linear_4204_17149" x1="53.5" y1="9.8164" x2="9.5" y2="53.8164" gradientUnits="userSpaceOnUse">
<stop offset="0.710304" stop-color="white" stop-opacity="0"/>
<stop offset="0.89681" stop-color="white"/>
</linearGradient>
<clipPath id="clip0_4204_17149">
<rect width="24" height="24" fill="white" transform="translate(19.5 19.8164)"/>
</clipPath>
</defs>
</svg>
