<svg width="63" height="63" viewBox="0 0 63 63" fill="none" xmlns="http://www.w3.org/2000/svg">
<rect x="1" y="1.31641" width="61" height="61" rx="30.5" stroke="white" stroke-opacity="0.15"/>
<rect x="9.5" y="9.81641" width="44" height="44" rx="22" fill="url(#paint0_linear_4204_17133)" fill-opacity="0.15"/>
<rect x="10" y="10.3164" width="43" height="43" rx="21.5" stroke="url(#paint1_linear_4204_17133)" stroke-opacity="0.2"/>
<rect x="10" y="10.3164" width="43" height="43" rx="21.5" stroke="url(#paint2_linear_4204_17133)" stroke-opacity="0.3"/>
<path d="M40.557 26.9971C40.5663 27.2083 40.5663 27.4099 40.5663 27.6211C40.5755 34.0243 35.8711 41.4163 27.2678 41.4163C24.7304 41.4163 22.2392 40.6579 20.1 39.2371C20.4704 39.2851 20.8408 39.3043 21.2113 39.3043C23.3135 39.3043 25.3601 38.5747 27.0178 37.2211C25.0174 37.1827 23.2579 35.8291 22.6467 33.8515C23.3505 33.9955 24.0728 33.9667 24.7581 33.7651C22.5819 33.3235 21.0168 31.3363 21.0075 29.0227C21.0075 29.0035 21.0075 28.9843 21.0075 28.9651C21.6558 29.3395 22.3874 29.5507 23.1282 29.5699C21.0816 28.1491 20.4426 25.3171 21.6836 23.0994C24.0636 26.1331 27.5642 27.9667 31.324 28.1683C30.9443 26.4883 31.4629 24.7219 32.6761 23.5315C34.556 21.6978 37.5195 21.7938 39.2975 23.7427C40.344 23.5315 41.3534 23.1283 42.2702 22.5618C41.9183 23.6851 41.1867 24.6355 40.2144 25.2403C41.1404 25.1251 42.048 24.8659 42.9 24.4819C42.2702 25.4611 41.4738 26.3059 40.557 26.9971Z" fill="white"/>
<defs>
<linearGradient id="paint0_linear_4204_17133" x1="67.5345" y1="-3.83876" x2="9.5" y2="53.8164" gradientUnits="userSpaceOnUse">
<stop offset="0.545273" stop-color="white" stop-opacity="0"/>
<stop offset="1" stop-color="white"/>
</linearGradient>
<linearGradient id="paint1_linear_4204_17133" x1="53.5" y1="9.8164" x2="9.5" y2="53.8164" gradientUnits="userSpaceOnUse">
<stop stop-color="white"/>
<stop offset="0.419845" stop-color="white" stop-opacity="0"/>
</linearGradient>
<linearGradient id="paint2_linear_4204_17133" x1="53.5" y1="9.8164" x2="9.5" y2="53.8164" gradientUnits="userSpaceOnUse">
<stop offset="0.710304" stop-color="white" stop-opacity="0"/>
<stop offset="0.89681" stop-color="white"/>
</linearGradient>
</defs>
</svg>
