<svg width="63" height="63" viewBox="0 0 63 63" fill="none" xmlns="http://www.w3.org/2000/svg">
<rect x="1" y="1.31641" width="61" height="61" rx="30.5" stroke="white" stroke-opacity="0.15"/>
<rect x="9.5" y="9.81641" width="44" height="44" rx="22" fill="url(#paint0_linear_4204_17160)" fill-opacity="0.15"/>
<rect x="10" y="10.3164" width="43" height="43" rx="21.5" stroke="url(#paint1_linear_4204_17160)" stroke-opacity="0.2"/>
<rect x="10" y="10.3164" width="43" height="43" rx="21.5" stroke="url(#paint2_linear_4204_17160)" stroke-opacity="0.3"/>
<g clip-path="url(#clip0_4204_17160)">
<path d="M39.7415 25.0022C38.2257 24.3067 36.6002 23.7942 34.9007 23.5007C34.8698 23.4951 34.8389 23.5092 34.8229 23.5375C34.6139 23.9094 34.3823 24.3944 34.2202 24.7757C32.3922 24.502 30.5736 24.502 28.7832 24.7757C28.621 24.3859 28.381 23.9094 28.171 23.5375C28.1551 23.5102 28.1242 23.496 28.0932 23.5007C26.3946 23.7933 24.7692 24.3057 23.2525 25.0022C23.2393 25.0078 23.2281 25.0173 23.2206 25.0295C20.1374 29.6357 19.2928 34.1287 19.7072 38.5659C19.709 38.5876 19.7212 38.6084 19.7381 38.6216C21.7723 40.1154 23.7427 41.0223 25.6766 41.6235C25.7075 41.6329 25.7403 41.6216 25.76 41.5961C26.2175 40.9714 26.6253 40.3127 26.9749 39.62C26.9955 39.5794 26.9758 39.5313 26.9337 39.5153C26.2869 39.2699 25.671 38.9707 25.0785 38.631C25.0317 38.6037 25.0279 38.5366 25.071 38.5045C25.1957 38.4111 25.3204 38.3139 25.4394 38.2158C25.461 38.1979 25.491 38.1941 25.5163 38.2054C29.4084 39.9824 33.6221 39.9824 37.4683 38.2054C37.4936 38.1931 37.5236 38.1969 37.5461 38.2148C37.6652 38.313 37.7898 38.4111 37.9154 38.5045C37.9585 38.5366 37.9557 38.6037 37.9089 38.631C37.3164 38.9773 36.7005 39.2699 36.0528 39.5143C36.0106 39.5304 35.9919 39.5794 36.0125 39.62C36.3696 40.3117 36.7774 40.9704 37.2264 41.5952C37.2452 41.6216 37.2789 41.6329 37.3099 41.6235C39.2531 41.0223 41.2235 40.1154 43.2577 38.6216C43.2755 38.6084 43.2868 38.5886 43.2887 38.5668C43.7845 33.4369 42.4581 28.9808 39.7724 25.0305C39.7659 25.0173 39.7546 25.0078 39.7415 25.0022ZM27.5561 35.8641C26.3843 35.8641 25.4188 34.7883 25.4188 33.4671C25.4188 32.1459 26.3656 31.0701 27.5561 31.0701C28.756 31.0701 29.7122 32.1554 29.6934 33.4671C29.6934 34.7883 28.7466 35.8641 27.5561 35.8641ZM35.4585 35.8641C34.2867 35.8641 33.3212 34.7883 33.3212 33.4671C33.3212 32.1459 34.268 31.0701 35.4585 31.0701C36.6584 31.0701 37.6145 32.1554 37.5958 33.4671C37.5958 34.7883 36.6584 35.8641 35.4585 35.8641Z" fill="white"/>
</g>
<defs>
<linearGradient id="paint0_linear_4204_17160" x1="67.5345" y1="-3.83876" x2="9.5" y2="53.8164" gradientUnits="userSpaceOnUse">
<stop offset="0.545273" stop-color="white" stop-opacity="0"/>
<stop offset="1" stop-color="white"/>
</linearGradient>
<linearGradient id="paint1_linear_4204_17160" x1="53.5" y1="9.8164" x2="9.5" y2="53.8164" gradientUnits="userSpaceOnUse">
<stop stop-color="white"/>
<stop offset="0.419845" stop-color="white" stop-opacity="0"/>
</linearGradient>
<linearGradient id="paint2_linear_4204_17160" x1="53.5" y1="9.8164" x2="9.5" y2="53.8164" gradientUnits="userSpaceOnUse">
<stop offset="0.710304" stop-color="white" stop-opacity="0"/>
<stop offset="0.89681" stop-color="white"/>
</linearGradient>
<clipPath id="clip0_4204_17160">
<rect width="24" height="24" fill="white" transform="translate(19.5 19.8164)"/>
</clipPath>
</defs>
</svg>
