<svg width="14" height="15" viewBox="0 0 14 15" fill="none" xmlns="http://www.w3.org/2000/svg">
<path opacity="0.4" d="M9.44415 1.98315H4.56165C2.43832 1.98315 1.17249 3.24899 1.17249 5.37232V10.2548C1.17249 12.3781 2.43832 13.644 4.56165 13.644H9.44415C11.5675 13.644 12.8333 12.3781 12.8333 10.2548V5.37232C12.8333 3.24899 11.5675 1.98315 9.44415 1.98315Z" fill="#FAF9F9"/>
<path d="M9.91669 10.1321C9.15252 10.1321 8.42336 9.78214 7.84002 9.13464C8.41752 8.39381 8.79085 7.47798 8.87252 6.47464H9.91085C10.15 6.47464 10.3483 6.27631 10.3483 6.03714C10.3483 5.79798 10.15 5.59964 9.91085 5.59964H8.49335C8.48169 5.59964 8.47002 5.5938 8.45835 5.5938C8.44669 5.5938 8.43502 5.59964 8.42336 5.59964H7.43752V5.05713C7.43752 4.81796 7.23919 4.61963 7.00002 4.61963C6.76085 4.61963 6.56252 4.81796 6.56252 5.05713V5.59964H4.08919C3.85003 5.59964 3.65169 5.79798 3.65169 6.03714C3.65169 6.27631 3.85003 6.47464 4.08919 6.47464H7.00002H7.99169C7.77586 8.52798 6.10751 10.1321 4.07751 10.1321C3.83835 10.1321 3.64001 10.3305 3.64001 10.5696C3.64001 10.8088 3.83835 11.0071 4.07751 11.0071C5.28501 11.0071 6.38752 10.5405 7.23335 9.77629C7.97418 10.5696 8.91335 11.0071 9.91085 11.0071C10.15 11.0071 10.3483 10.8088 10.3483 10.5696C10.3483 10.3305 10.1559 10.1321 9.91669 10.1321Z" fill="#FAF9F9"/>
</svg>
