<svg width="18" height="19" viewBox="0 0 18 19" fill="none" xmlns="http://www.w3.org/2000/svg">
<path d="M13.71 8.13652V10.4915C13.71 10.6415 13.7025 10.7915 13.6875 10.934C13.5525 12.524 12.615 13.319 10.89 13.319H10.6575C10.5075 13.319 10.365 13.3865 10.2825 13.5065L9.57749 14.4515C9.26249 14.8715 8.76001 14.8715 8.44501 14.4515L7.74001 13.5065C7.66501 13.409 7.49251 13.319 7.36501 13.319H7.13251C5.25001 13.319 4.3125 12.854 4.3125 10.499V8.144C4.3125 6.419 5.10749 5.48152 6.69749 5.34652C6.83999 5.33152 6.98999 5.32402 7.13999 5.32402H10.9125C12.765 5.31652 13.71 6.26152 13.71 8.13652Z" fill="#FAF9F9"/>
<path opacity="0.4" d="M12.1423 2.31641H5.86482C3.13482 2.31641 1.50732 3.9439 1.50732 6.6739V12.9514C1.50732 15.6814 3.13482 17.3089 5.86482 17.3089H12.1423C14.8723 17.3089 16.4998 15.6814 16.4998 12.9514V6.6739C16.4998 3.9439 14.8723 2.31641 12.1423 2.31641Z" fill="#FAF9F9"/>
</svg>
