<svg width="18" height="19" viewBox="0 0 18 19" fill="none" xmlns="http://www.w3.org/2000/svg">
<path opacity="0.4" d="M12.75 16.1914H5.25C3 16.1914 1.5 15.0664 1.5 12.4414V7.19141C1.5 4.56641 3 3.44141 5.25 3.44141H12.75C15 3.44141 16.5 4.56641 16.5 7.19141V12.4414C16.5 15.0664 15 16.1914 12.75 16.1914Z" fill="#FAF9F9"/>
<path d="M9 12.0664C10.2426 12.0664 11.25 11.059 11.25 9.81641C11.25 8.57377 10.2426 7.56641 9 7.56641C7.75736 7.56641 6.75 8.57377 6.75 9.81641C6.75 11.059 7.75736 12.0664 9 12.0664Z" fill="#FAF9F9"/>
<path d="M14.25 6.62891H12C11.6925 6.62891 11.4375 6.37391 11.4375 6.06641C11.4375 5.75891 11.6925 5.50391 12 5.50391H14.25C14.5575 5.50391 14.8125 5.75891 14.8125 6.06641C14.8125 6.37391 14.5575 6.62891 14.25 6.62891Z" fill="#FAF9F9"/>
<path d="M6 14.1289H3.75C3.4425 14.1289 3.1875 13.8739 3.1875 13.5664C3.1875 13.2589 3.4425 13.0039 3.75 13.0039H6C6.3075 13.0039 6.5625 13.2589 6.5625 13.5664C6.5625 13.8739 6.3075 14.1289 6 14.1289Z" fill="#FAF9F9"/>
</svg>
