<svg width="18" height="19" viewBox="0 0 18 19" fill="none" xmlns="http://www.w3.org/2000/svg">
<path opacity="0.4" d="M13.1475 6.64391C13.095 6.63641 13.0425 6.63641 12.99 6.64391C11.8275 6.60641 10.905 5.65391 10.905 4.48391C10.905 3.29141 11.8725 2.31641 13.0725 2.31641C14.265 2.31641 15.24 3.28391 15.24 4.48391C15.2325 5.65391 14.31 6.60641 13.1475 6.64391Z" fill="#FAF9F9"/>
<path opacity="0.4" d="M15.5925 11.8415C14.7525 12.404 13.575 12.614 12.4875 12.4715C12.7725 11.8565 12.9225 11.174 12.93 10.454C12.93 9.70396 12.765 8.99147 12.45 8.36897C13.56 8.21897 14.7375 8.42896 15.585 8.99146C16.77 9.77146 16.77 11.054 15.5925 11.8415Z" fill="#FAF9F9"/>
<path opacity="0.4" d="M4.83005 6.64391C4.88255 6.63641 4.93505 6.63641 4.98755 6.64391C6.15005 6.60641 7.07255 5.65391 7.07255 4.48391C7.07255 3.29141 6.10505 2.31641 4.90505 2.31641C3.71255 2.31641 2.73755 3.28391 2.73755 4.48391C2.74505 5.65391 3.66755 6.60641 4.83005 6.64391Z" fill="#FAF9F9"/>
<path opacity="0.4" d="M4.91259 10.4539C4.91259 11.1814 5.07009 11.8714 5.35509 12.4939C4.29759 12.6064 3.19509 12.3814 2.38509 11.8489C1.20009 11.0614 1.20009 9.77886 2.38509 8.99136C3.18759 8.45136 4.32009 8.23386 5.38509 8.35386C5.07759 8.98386 4.91259 9.69636 4.91259 10.4539Z" fill="#FAF9F9"/>
<path d="M9.0901 12.7189C9.0301 12.7114 8.9626 12.7114 8.8951 12.7189C7.5151 12.6739 6.4126 11.5414 6.4126 10.1464C6.4126 8.72141 7.5601 7.56641 8.9926 7.56641C10.4176 7.56641 11.5726 8.72141 11.5726 10.1464C11.5726 11.5414 10.4776 12.6739 9.0901 12.7189Z" fill="#FAF9F9"/>
<path d="M6.6526 14.2714C5.5201 15.0289 5.5201 16.2739 6.6526 17.0239C7.9426 17.8864 10.0576 17.8864 11.3476 17.0239C12.4801 16.2664 12.4801 15.0214 11.3476 14.2714C10.0651 13.4089 7.9501 13.4089 6.6526 14.2714Z" fill="#FAF9F9"/>
</svg>
