<svg width="125" height="95" viewBox="0 0 125 95" fill="none" xmlns="http://www.w3.org/2000/svg">
<path d="M23.1094 94.4582V88.2325C23.1094 85.8449 21.6246 84.2891 19.1874 84.2891C17.9074 84.2891 16.5378 84.705 15.583 86.0428C14.8406 84.9004 13.791 84.2891 12.191 84.2891C10.9826 84.238 9.82874 84.7838 9.11897 85.7422V84.4895H7.10425V94.4507H9.11897V88.7511C9.11897 86.9974 10.1788 86.1581 11.6636 86.1581C13.1484 86.1581 13.9958 87.0926 13.9958 88.7511V94.4582H16.0105V88.7511C16.0105 86.9974 17.0703 86.1581 18.5551 86.1581C20.0399 86.1581 20.8873 87.0926 20.8873 88.7511V94.4582H23.1094ZM56.1897 84.5998H52.4777V81.5934H50.4681V84.5998H48.3484V86.3535H50.4681V91.0334C50.4681 93.3157 51.3154 94.6661 53.8601 94.6661C54.8241 94.6464 55.7687 94.3971 56.6121 93.9396L55.9746 92.1859C55.4027 92.5357 54.7393 92.7159 54.0649 92.7045C53.005 92.7045 52.4751 92.0806 52.4751 91.0434V86.2733H56.1871V84.6123L56.1897 84.5998ZM75.062 84.2891C73.9457 84.2648 72.8985 84.8167 72.3049 85.7422V84.4895H70.2902V94.4507H72.3049V88.8563C72.3049 87.1953 73.1522 86.1581 74.5321 86.1581C74.9977 86.1766 75.4597 86.2463 75.9094 86.366L76.5468 84.4971C76.0607 84.3771 75.563 84.3074 75.062 84.2891ZM46.541 85.3263C45.4812 84.5998 43.9964 84.2891 42.4066 84.2891C39.862 84.2891 38.2722 85.4315 38.2722 87.4032C38.2722 89.0642 39.4396 89.9962 41.6642 90.3094L42.7241 90.4121C43.8914 90.62 44.6338 91.0359 44.6338 91.5545C44.6338 92.281 43.7865 92.8072 42.1942 92.8072C40.9783 92.8316 39.7875 92.4675 38.8022 91.77L37.7423 93.3258C39.2271 94.363 41.0294 94.5784 42.0943 94.5784C45.0639 94.5784 46.6537 93.2306 46.6537 91.3616C46.6537 89.6079 45.3737 88.7686 43.1542 88.4554L42.0943 88.3527C41.1394 88.25 40.3023 87.9369 40.3023 87.3155C40.3023 86.589 41.1497 86.0629 42.317 86.0629C43.597 86.0629 44.8617 86.5815 45.4991 86.8921L46.541 85.3263ZM77.2892 89.4776C77.2892 92.484 79.3039 94.6661 82.591 94.6661C84.0758 94.6661 85.1356 94.3554 86.1954 93.5237L85.1356 91.9679C84.3852 92.5626 83.4516 92.8919 82.486 92.9024C80.694 92.9024 79.3039 91.5545 79.3039 89.5828C79.3039 87.6112 80.6761 86.2733 82.486 86.2733C83.4516 86.2838 84.3852 86.6131 85.1356 87.2078L86.1954 85.652C85.1356 84.8227 84.0758 84.5096 82.591 84.5096C79.4089 84.3016 77.2892 86.4813 77.2892 89.4901V89.4776ZM63.0812 84.2891C60.1116 84.2891 58.0969 86.3635 58.0969 89.4776C58.0969 92.5917 60.2166 94.6661 63.2911 94.6661C64.7869 94.697 66.2475 94.2208 67.4255 93.3182L66.3657 91.8652C65.5138 92.5112 64.4735 92.8746 63.3961 92.9024C62.0188 92.9024 60.534 92.0731 60.3241 90.3094H67.853V89.4801C67.853 86.366 65.9433 84.2916 63.0812 84.2916V84.2891ZM62.9762 86.1581C64.461 86.1581 65.5209 87.0926 65.6258 88.6484H60.1142C60.4316 87.1953 61.3942 86.1581 62.9762 86.1581ZM35.5151 89.4776V84.4971H33.5004V85.7497C32.758 84.8152 31.7084 84.2966 30.2134 84.2966C27.3513 84.2966 25.229 86.4763 25.229 89.4851C25.229 92.494 27.3487 94.6736 30.2134 94.6736C31.6982 94.6736 32.758 94.155 33.5004 93.2205V94.4732H35.5151V89.4776ZM27.3513 89.4776C27.3513 87.6087 28.5186 86.1581 30.5334 86.1581C32.4431 86.1581 33.6054 87.6112 33.6054 89.4776C33.6054 91.4493 32.3254 92.7971 30.5334 92.7971C28.5186 92.8999 27.3513 91.3441 27.3513 89.4776ZM105.708 84.2891C104.591 84.2648 103.544 84.8167 102.951 85.7422V84.4895H100.936V94.4507H102.948V88.8563C102.948 87.1953 103.795 86.1581 105.175 86.1581C105.641 86.1766 106.103 86.2463 106.553 86.366L107.19 84.4971C106.704 84.3771 106.206 84.3074 105.705 84.2891H105.708ZM97.8614 89.4776V84.4971H95.8466V85.7497C95.1042 84.8152 94.0546 84.2966 92.5596 84.2966C89.6975 84.2966 87.5753 86.4763 87.5753 89.4851C87.5753 92.494 89.695 94.6736 92.5596 94.6736C94.0444 94.6736 95.1042 94.155 95.8466 93.2205V94.4732H97.8614V89.4776ZM89.6975 89.4776C89.6975 87.6087 90.8649 86.1581 92.8796 86.1581C94.7894 86.1581 95.9516 87.6112 95.9516 89.4776C95.9516 91.4493 94.6716 92.7971 92.8796 92.7971C90.8649 92.8999 89.6975 91.3441 89.6975 89.4776ZM118.326 89.4776V80.5537H116.311V85.7422C115.569 84.8077 114.519 84.2891 113.024 84.2891C110.162 84.2891 108.04 86.4687 108.04 89.4776C108.04 92.4865 110.16 94.6661 113.024 94.6661C114.509 94.6661 115.569 94.1475 116.311 93.213V94.4657H118.326V89.4776ZM110.162 89.4776C110.162 87.6087 111.33 86.1581 113.344 86.1581C115.254 86.1581 116.416 87.6112 116.416 89.4776C116.416 91.4493 115.136 92.7971 113.344 92.7971C111.327 92.9024 110.16 91.3466 110.16 89.4776H110.162Z" fill="white"/>
<path d="M44.2087 8.95703H81.0011V67.6865H44.2087V8.95703Z" fill="#FF5F00"/>
<path d="M47.9208 38.3215C47.9233 26.8754 53.2738 16.0588 62.4462 8.95681C46.7974 -3.08405 24.3206 -1.3338 10.8145 12.9773C-2.69173 27.2885 -2.69173 49.3546 10.8145 63.6657C24.3206 77.9768 46.7974 79.7271 62.4462 67.6862C53.2738 60.5843 47.9233 49.7676 47.9208 38.3215Z" fill="#EB001B"/>
<path d="M124.262 38.3219C124.273 52.6139 115.942 65.6564 102.808 71.9072C89.6754 78.158 74.0478 76.519 62.5664 67.6867C71.741 60.5865 77.0923 49.7687 77.0923 38.3219C77.0923 26.8752 71.741 16.0574 62.5664 8.95723C74.0478 0.1249 89.6754 -1.51409 102.808 4.73672C115.942 10.9875 124.273 24.03 124.262 38.3219Z" fill="#F79E1B"/>
</svg>
