<svg width="212" height="58" viewBox="0 0 212 58" fill="none" xmlns="http://www.w3.org/2000/svg">
<g clip-path="url(#clip0_4197_14992)">
<path fill-rule="evenodd" clip-rule="evenodd" d="M45.0127 6.46094H12.7754C9.16059 6.46094 6.2304 9.36923 6.2304 12.9569C6.2304 16.5445 9.16059 19.4526 12.7754 19.4526H29.2117L2.75336 45.7123C0.19696 48.2486 0.19696 52.3616 2.75336 54.8987C5.30919 57.4354 9.45336 57.4354 12.0092 54.8987L38.4676 28.6393V44.9516C38.4676 48.5392 41.3979 51.4475 45.0127 51.4475C48.6275 51.4475 51.5577 48.5392 51.5577 44.9516V12.9569C51.5577 9.36923 48.6275 6.46094 45.0127 6.46094Z" fill="#FAF9F9"/>
<path fill-rule="evenodd" clip-rule="evenodd" d="M63.8525 51.1712H96.0898C99.7046 51.1712 102.635 48.2631 102.635 44.6755C102.635 41.0878 99.7046 38.1795 96.0898 38.1795H79.6536L106.112 11.9202C108.668 9.38354 108.668 5.27055 106.112 2.73393C103.556 0.196762 99.412 0.196762 96.8562 2.73393L70.3975 28.9933V12.6806C70.3975 9.09298 67.4673 6.18482 63.8525 6.18482C60.2377 6.18482 57.3074 9.09298 57.3074 12.6806V44.6755C57.3074 48.2631 60.2377 51.1712 63.8525 51.1712Z" fill="#FF7900"/>
<path fill-rule="evenodd" clip-rule="evenodd" d="M131.409 22.5188C135.095 22.5188 136.48 19.3722 136.48 16.2518C136.48 12.9741 135.095 9.82733 131.409 9.82733C127.723 9.82733 126.337 12.9739 126.337 16.2518C126.337 19.3721 127.723 22.5188 131.409 22.5188ZM131.409 6.36621C137.186 6.36621 140.584 10.6927 140.584 16.2518C140.584 21.6534 137.186 25.9799 131.409 25.9799C125.632 25.9799 122.233 21.6534 122.233 16.2518C122.233 10.6927 125.632 6.36621 131.409 6.36621ZM141.996 12.3396H145.429V14.8725H145.48C146.141 13.1576 147.922 11.9701 149.677 11.9701C149.931 11.9701 150.236 12.0232 150.465 12.1024V15.5848C150.134 15.5056 149.6 15.453 149.168 15.453C146.523 15.453 145.607 17.4316 145.607 19.8327V25.9799H141.996V12.3396ZM161.512 19.1164C160.84 19.6562 159.439 19.682 158.207 19.8876C156.975 20.1188 155.854 20.5045 155.854 21.8413C155.854 23.2037 157.002 23.5379 158.291 23.5379C161.4 23.5379 161.512 21.2757 161.512 20.479V19.1164ZM152.325 16.4174C152.549 12.9986 155.883 11.9701 159.131 11.9701C162.016 11.9701 165.489 12.5612 165.489 15.7488V22.6641C165.489 23.872 165.628 25.0799 165.993 25.62H161.96C161.82 25.2087 161.708 24.7717 161.68 24.3349C160.419 25.5428 158.571 25.9799 156.806 25.9799C154.062 25.9799 151.877 24.7204 151.877 21.9955C151.877 18.9879 154.342 18.2681 156.806 17.9594C159.243 17.6253 161.512 17.7025 161.512 16.2114C161.512 14.6436 160.335 14.4122 158.935 14.4122C157.423 14.4122 156.443 14.9777 156.302 16.4174H152.325ZM167.404 12.3396H170.94V14.2393H171.02C171.962 12.709 173.587 11.9701 175.158 11.9701C179.113 11.9701 180.109 14.2128 180.109 17.59V25.9799H176.389V18.2761C176.389 16.0334 175.734 14.9252 174.006 14.9252C171.989 14.9252 171.124 16.06 171.124 18.83V25.9799H167.405L167.404 12.3396ZM191.921 19.1468C191.921 16.8806 191.124 14.857 188.592 14.857C186.391 14.857 185.428 16.7458 185.428 18.8229C185.428 20.8193 186.198 23.0047 188.592 23.0047C190.821 23.0047 191.921 21.1429 191.921 19.1468ZM195.636 25.4057C195.636 27.6989 194.811 31.5838 188.262 31.5838C185.455 31.5838 182.181 30.2886 181.988 27.1053H185.868C186.226 28.535 187.409 29.0209 188.785 29.0209C190.959 29.0209 191.949 27.564 191.921 25.5675V23.7332H191.867C191.014 25.1899 189.307 25.8916 187.602 25.8916C183.337 25.8916 181.52 22.7079 181.52 18.877C181.52 15.2616 183.639 11.9703 187.629 11.9703C189.5 11.9703 190.931 12.5909 191.867 14.2097H191.922V12.3478H195.636V25.4057ZM207.256 17.5483C206.901 15.6973 206.052 14.7208 204.163 14.7208C201.7 14.7208 200.989 16.5201 200.934 17.5483H207.256ZM200.934 19.8617C201.044 22.1753 202.248 23.2292 204.41 23.2292C205.97 23.2292 207.229 22.3292 207.475 21.5067H210.896C209.801 24.6432 207.475 25.9799 204.273 25.9799C199.812 25.9799 197.048 23.1009 197.048 18.9876C197.048 15.0035 199.976 11.9701 204.273 11.9701C209.09 11.9701 211.416 15.7743 211.142 19.8618L200.934 19.8617ZM131.505 45.072H131.56L135.911 31.5838H141.996V51.1975H137.948V37.2974H137.893L133.075 51.1975H129.743L124.925 37.4347H124.869V51.1975H120.822V31.5838H126.907L131.505 45.072ZM151.864 48.447C154.423 48.447 155.188 46.3133 155.188 44.2054C155.188 42.0717 154.423 39.9383 151.864 39.9383C149.331 39.9383 148.566 42.0717 148.566 44.2054C148.566 46.3133 149.331 48.447 151.864 48.447ZM151.864 37.1877C156.164 37.1877 158.935 39.9642 158.935 44.2054C158.935 48.4211 156.164 51.1975 151.864 51.1975C147.59 51.1975 144.819 48.4211 144.819 44.2054C144.819 39.9642 147.59 37.1877 151.864 37.1877ZM160.346 37.5572H163.882V39.4569H163.962C164.904 37.927 166.529 37.1877 168.1 37.1877C172.055 37.1877 173.051 39.4304 173.051 42.8078V51.1975H169.331V43.4935C169.331 41.251 168.676 40.1431 166.948 40.1431C164.93 40.1431 164.066 41.2775 164.066 44.0476V51.1975H160.347L160.346 37.5572ZM184.671 42.766C184.315 40.915 183.467 39.9383 181.578 39.9383C179.115 39.9383 178.404 41.738 178.349 42.766H184.671ZM178.349 45.0796C178.458 47.3926 179.662 48.447 181.824 48.447C183.384 48.447 184.643 47.547 184.89 46.7245H188.311C187.216 49.8604 184.89 51.1975 181.688 51.1975C177.227 51.1975 174.462 48.3181 174.462 44.2051C174.462 40.2214 177.391 37.1877 181.688 37.1877C186.504 37.1877 188.831 40.9922 188.557 45.0795L178.349 45.0796ZM196.952 52.3518C196.128 54.5141 194.826 55.4005 192.22 55.4005C191.449 55.4005 190.678 55.3481 189.907 55.2699V52.2215C190.625 52.2736 191.37 52.378 192.114 52.3518C193.416 52.2215 193.842 50.8928 193.416 49.8246L188.578 37.1877H192.619L195.729 46.4114H195.783L198.787 37.1877H202.694L196.952 52.3518Z" fill="#FAF9F9"/>
</g>
<defs>
<clipPath id="clip0_4197_14992">
<rect width="211" height="57" fill="white" transform="translate(0.5 0.316406)"/>
</clipPath>
</defs>
</svg>
