<svg width="14" height="14" viewBox="0 0 14 14" fill="none" xmlns="http://www.w3.org/2000/svg">
<path opacity="0.4" d="M11.725 4.0484C11.725 4.3634 11.5559 4.64922 11.2875 4.79505L10.2725 5.34339L9.4092 5.80424L7.61836 6.77256C7.42586 6.87756 7.21586 6.93007 7.00003 6.93007C6.78419 6.93007 6.5742 6.87756 6.3817 6.77256L2.71252 4.79505C2.44419 4.64922 2.27502 4.3634 2.27502 4.0484C2.27502 3.7334 2.44419 3.44755 2.71252 3.30172L3.86169 2.68339L4.77753 2.18757L6.3817 1.32425C6.7667 1.11425 7.23336 1.11425 7.61836 1.32425L11.2875 3.30172C11.5559 3.44755 11.725 3.7334 11.725 4.0484Z" fill="#FAF9F9"/>
<path opacity="0.4" d="M5.775 7.46089L2.3625 5.75172C2.1 5.61756 1.79667 5.63506 1.54583 5.78672C1.295 5.93839 1.14917 6.20674 1.14917 6.49841V9.72422C1.14917 10.2842 1.45833 10.7859 1.95999 11.0367L5.3725 12.7401C5.48916 12.7984 5.61751 12.8276 5.74584 12.8276C5.89751 12.8276 6.04917 12.7867 6.18334 12.6992C6.43417 12.5476 6.58 12.2792 6.58 11.9876V8.76174C6.58583 8.21341 6.27667 7.71172 5.775 7.46089Z" fill="#FAF9F9"/>
<path opacity="0.4" d="M12.8509 6.5043V9.73011C12.8509 10.2843 12.5417 10.7859 12.04 11.0368L8.62753 12.7459C8.51086 12.8043 8.38252 12.8335 8.25419 12.8335C8.10252 12.8335 7.95086 12.7926 7.81086 12.7051C7.56586 12.5535 7.41418 12.2851 7.41418 11.9934V8.77344C7.41418 8.21344 7.72336 7.71177 8.22503 7.46094L9.47919 6.83677L10.3542 6.39927L11.6375 5.75761C11.9 5.62345 12.2034 5.63511 12.4542 5.79261C12.6992 5.94428 12.8509 6.21263 12.8509 6.5043Z" fill="#FAF9F9"/>
<path d="M10.2725 5.34332L9.4092 5.80417L3.86169 2.68332L4.77753 2.1875L10.1325 5.20916C10.1909 5.24416 10.2375 5.29082 10.2725 5.34332Z" fill="#FAF9F9"/>
<path d="M10.3542 6.39917V7.72335C10.3542 7.96251 10.1559 8.16085 9.91669 8.16085C9.67752 8.16085 9.47919 7.96251 9.47919 7.72335V6.83667L10.3542 6.39917Z" fill="#FAF9F9"/>
</svg>
