<svg width="18" height="18" viewBox="0 0 18 18" fill="none" xmlns="http://www.w3.org/2000/svg">
<path d="M12.5625 2.67V1.5C12.5625 1.1925 12.3075 0.9375 12 0.9375C11.6925 0.9375 11.4375 1.1925 11.4375 1.5V2.625H6.56248V1.5C6.56248 1.1925 6.30748 0.9375 5.99998 0.9375C5.69248 0.9375 5.43748 1.1925 5.43748 1.5V2.67C3.41248 2.8575 2.42999 4.065 2.27999 5.8575C2.26499 6.075 2.44499 6.255 2.65499 6.255H15.345C15.5625 6.255 15.7425 6.0675 15.72 5.8575C15.57 4.065 14.5875 2.8575 12.5625 2.67Z" fill="#FAF9F9"/>
<path opacity="0.4" d="M15 7.37988C15.4125 7.37988 15.75 7.71738 15.75 8.12988V12.7499C15.75 14.9999 14.625 16.4999 12 16.4999H6C3.375 16.4999 2.25 14.9999 2.25 12.7499V8.12988C2.25 7.71738 2.5875 7.37988 3 7.37988H15Z" fill="#FAF9F9"/>
<path d="M6.375 11.2499C6.2775 11.2499 6.18 11.2274 6.09 11.1899C6 11.1524 5.91751 11.0999 5.84251 11.0324C5.77501 10.9574 5.72249 10.8749 5.68499 10.7849C5.64749 10.6949 5.625 10.5974 5.625 10.4999C5.625 10.4024 5.64749 10.3049 5.68499 10.2149C5.72249 10.1249 5.77501 10.0424 5.84251 9.96743C5.91751 9.89993 6 9.84741 6.09 9.80991C6.27 9.73491 6.48 9.73491 6.66 9.80991C6.75 9.84741 6.83249 9.89993 6.90749 9.96743C6.97499 10.0424 7.02751 10.1249 7.06501 10.2149C7.10251 10.3049 7.125 10.4024 7.125 10.4999C7.125 10.5974 7.10251 10.6949 7.06501 10.7849C7.02751 10.8749 6.97499 10.9574 6.90749 11.0324C6.83249 11.0999 6.75 11.1524 6.66 11.1899C6.57 11.2274 6.4725 11.2499 6.375 11.2499Z" fill="#FAF9F9"/>
<path d="M9 11.2499C8.9025 11.2499 8.805 11.2274 8.715 11.1899C8.625 11.1524 8.54251 11.0999 8.46751 11.0324C8.33251 10.8899 8.25 10.6949 8.25 10.4999C8.25 10.3049 8.33251 10.1099 8.46751 9.96744C8.54251 9.89994 8.625 9.84742 8.715 9.80992C8.895 9.72742 9.105 9.72742 9.285 9.80992C9.375 9.84742 9.45749 9.89994 9.53249 9.96744C9.66749 10.1099 9.75 10.3049 9.75 10.4999C9.75 10.6949 9.66749 10.8899 9.53249 11.0324C9.45749 11.0999 9.375 11.1524 9.285 11.1899C9.195 11.2274 9.0975 11.2499 9 11.2499Z" fill="#FAF9F9"/>
<path d="M6.375 13.8749C6.2775 13.8749 6.18 13.8524 6.09 13.8149C6 13.7774 5.91751 13.7249 5.84251 13.6574C5.70751 13.5149 5.625 13.3199 5.625 13.1249C5.625 12.9299 5.70751 12.7349 5.84251 12.5924C5.91751 12.5249 6 12.4724 6.09 12.4349C6.27 12.3599 6.48 12.3599 6.66 12.4349C6.75 12.4724 6.83249 12.5249 6.90749 12.5924C7.04249 12.7349 7.125 12.9299 7.125 13.1249C7.125 13.3199 7.04249 13.5149 6.90749 13.6574C6.83249 13.7249 6.75 13.7774 6.66 13.8149C6.57 13.8524 6.4725 13.8749 6.375 13.8749Z" fill="#FAF9F9"/>
</svg>
