<svg width="14" height="14" viewBox="0 0 14 14" fill="none" xmlns="http://www.w3.org/2000/svg">
<path opacity="0.4" d="M9.44415 1.16675H4.56165C2.43832 1.16675 1.17249 2.43258 1.17249 4.55591V9.43841C1.17249 11.5617 2.43832 12.8276 4.56165 12.8276H9.44415C11.5675 12.8276 12.8333 11.5617 12.8333 9.43841V4.55591C12.8333 2.43258 11.5675 1.16675 9.44415 1.16675Z" fill="#FAF9F9"/>
<path d="M9.91669 9.31573C9.15252 9.31573 8.42336 8.96573 7.84002 8.31823C8.41752 7.5774 8.79085 6.66157 8.87252 5.65824H9.91085C10.15 5.65824 10.3483 5.4599 10.3483 5.22074C10.3483 4.98157 10.15 4.78324 9.91085 4.78324H8.49335C8.48169 4.78324 8.47002 4.7774 8.45835 4.7774C8.44669 4.7774 8.43502 4.78324 8.42336 4.78324H7.43752V4.24072C7.43752 4.00156 7.23919 3.80322 7.00002 3.80322C6.76085 3.80322 6.56252 4.00156 6.56252 4.24072V4.78324H4.08919C3.85003 4.78324 3.65169 4.98157 3.65169 5.22074C3.65169 5.4599 3.85003 5.65824 4.08919 5.65824H7.00002H7.99169C7.77586 7.71157 6.10751 9.31573 4.07751 9.31573C3.83835 9.31573 3.64001 9.51406 3.64001 9.75323C3.64001 9.9924 3.83835 10.1907 4.07751 10.1907C5.28501 10.1907 6.38752 9.72405 7.23335 8.95989C7.97418 9.75322 8.91335 10.1907 9.91085 10.1907C10.15 10.1907 10.3483 9.9924 10.3483 9.75323C10.3483 9.51406 10.1559 9.31573 9.91669 9.31573Z" fill="#FAF9F9"/>
</svg>
