<svg width="18" height="18" viewBox="0 0 18 18" fill="none" xmlns="http://www.w3.org/2000/svg">
<path d="M13.71 7.32011V9.6751C13.71 9.8251 13.7025 9.9751 13.6875 10.1176C13.5525 11.7076 12.615 12.5026 10.89 12.5026H10.6575C10.5075 12.5026 10.365 12.5701 10.2825 12.6901L9.57749 13.6351C9.26249 14.0551 8.76001 14.0551 8.44501 13.6351L7.74001 12.6901C7.66501 12.5926 7.49251 12.5026 7.36501 12.5026H7.13251C5.25001 12.5026 4.3125 12.0376 4.3125 9.68261V7.3276C4.3125 5.6026 5.10749 4.66511 6.69749 4.53011C6.83999 4.51511 6.98999 4.50761 7.13999 4.50761H10.9125C12.765 4.50011 13.71 5.44511 13.71 7.32011Z" fill="#FAF9F9"/>
<path opacity="0.4" d="M12.1423 1.5H5.86482C3.13482 1.5 1.50732 3.1275 1.50732 5.8575V12.135C1.50732 14.865 3.13482 16.4925 5.86482 16.4925H12.1423C14.8723 16.4925 16.4998 14.865 16.4998 12.135V5.8575C16.4998 3.1275 14.8723 1.5 12.1423 1.5Z" fill="#FAF9F9"/>
</svg>
