<svg width="14" height="14" viewBox="0 0 14 14" fill="none" xmlns="http://www.w3.org/2000/svg">
<path opacity="0.4" d="M9.33335 1.16675H4.66669C2.33335 1.16675 1.16669 2.33341 1.16669 4.66675V12.2501C1.16669 12.5709 1.42919 12.8334 1.75002 12.8334H9.33335C11.6667 12.8334 12.8334 11.6667 12.8334 9.33341V4.66675C12.8334 2.33341 11.6667 1.16675 9.33335 1.16675Z" fill="#FAF9F9"/>
<path d="M9.91665 5.10425H4.08331C3.84415 5.10425 3.64581 5.30258 3.64581 5.54175C3.64581 5.78091 3.84415 5.97925 4.08331 5.97925H9.91665C10.1558 5.97925 10.3541 5.78091 10.3541 5.54175C10.3541 5.30258 10.1558 5.10425 9.91665 5.10425Z" fill="#FAF9F9"/>
<path d="M8.16665 8.021H4.08331C3.84415 8.021 3.64581 8.21933 3.64581 8.4585C3.64581 8.69766 3.84415 8.896 4.08331 8.896H8.16665C8.40581 8.896 8.60415 8.69766 8.60415 8.4585C8.60415 8.21933 8.40581 8.021 8.16665 8.021Z" fill="#FAF9F9"/>
</svg>
