<svg width="20" height="20" viewBox="0 0 20 20" fill="none" xmlns="http://www.w3.org/2000/svg">
<path opacity="0.4" d="M9.975 18.3333C14.5774 18.3333 18.3083 14.6023 18.3083 9.99996C18.3083 5.39759 14.5774 1.66663 9.975 1.66663C5.37262 1.66663 1.64166 5.39759 1.64166 9.99996C1.64166 14.6023 5.37262 18.3333 9.975 18.3333Z" fill="#FAF9F9"/>
<path d="M12.475 8.52502L10.0583 7.13335C9.45834 6.78335 8.73334 6.78335 8.13334 7.13335C7.53334 7.48335 7.175 8.10002 7.175 8.80002V11.5917C7.175 12.2833 7.53334 12.9083 8.13334 13.2583C8.43334 13.4333 8.76667 13.5167 9.09167 13.5167C9.425 13.5167 9.75 13.4333 10.05 13.2583L12.4667 11.8667C13.0667 11.5167 13.425 10.9 13.425 10.2C13.4417 9.50002 13.0833 8.87502 12.475 8.52502Z" fill="#FAF9F9"/>
</svg>
