<svg width="18" height="18" viewBox="0 0 18 18" fill="none" xmlns="http://www.w3.org/2000/svg">
<path d="M16.5 4.50006V6.31506C16.5 7.50006 15.75 8.25006 14.565 8.25006H12V3.00756C12 2.17506 12.6825 1.49256 13.515 1.50006C14.3325 1.50756 15.0825 1.83756 15.6225 2.37756C16.1625 2.92506 16.5 3.67506 16.5 4.50006Z" fill="#FAF9F9"/>
<path opacity="0.4" d="M1.5 5.25V15.75C1.5 16.3725 2.205 16.725 2.7 16.35L3.9825 15.39C4.2825 15.165 4.7025 15.195 4.9725 15.465L6.2175 16.7175C6.51 17.01 6.99 17.01 7.2825 16.7175L8.5425 15.4575C8.805 15.195 9.225 15.165 9.5175 15.39L10.8 16.35C11.295 16.7175 12 16.365 12 15.75V3C12 2.175 12.675 1.5 13.5 1.5H5.25H4.5C2.25 1.5 1.5 2.8425 1.5 4.5V5.25Z" fill="#FAF9F9"/>
<path d="M9 9.19507H6.75C6.4425 9.19507 6.1875 9.45007 6.1875 9.75757C6.1875 10.0651 6.4425 10.3201 6.75 10.3201H9C9.3075 10.3201 9.5625 10.0651 9.5625 9.75757C9.5625 9.45007 9.3075 9.19507 9 9.19507Z" fill="#FAF9F9"/>
<path d="M6.75 7.32007H9C9.3075 7.32007 9.5625 7.06507 9.5625 6.75757C9.5625 6.45007 9.3075 6.19507 9 6.19507H6.75C6.4425 6.19507 6.1875 6.45007 6.1875 6.75757C6.1875 7.06507 6.4425 7.32007 6.75 7.32007Z" fill="#FAF9F9"/>
<path d="M4.47751 6.00757C4.05751 6.00757 3.72751 6.34507 3.72751 6.75757C3.72751 7.17007 4.06501 7.50757 4.47751 7.50757C4.89001 7.50757 5.22751 7.17007 5.22751 6.75757C5.22751 6.34507 4.89001 6.00757 4.47751 6.00757Z" fill="#FAF9F9"/>
<path d="M4.47751 9.00757C4.05751 9.00757 3.72751 9.34507 3.72751 9.75757C3.72751 10.1701 4.06501 10.5076 4.47751 10.5076C4.89001 10.5076 5.22751 10.1701 5.22751 9.75757C5.22751 9.34507 4.89001 9.00757 4.47751 9.00757Z" fill="#FAF9F9"/>
</svg>
