<svg width="506" height="244" viewBox="0 0 506 244" fill="none" xmlns="http://www.w3.org/2000/svg">
<path d="M126.266 242.413H489.433C491.512 242.413 493.572 242.004 495.493 241.208C497.415 240.412 499.161 239.245 500.631 237.775C502.102 236.304 503.269 234.558 504.064 232.637C504.86 230.715 505.27 228.656 505.27 226.576V16.5676C505.273 15.1641 505.086 13.7666 504.715 12.413C503.804 9.05792 501.814 6.09604 499.052 3.98461C496.289 1.87318 492.909 0.729629 489.433 0.730469H347.585C344.275 6.30444 342.236 12.5396 341.612 18.9917C339.852 37.7495 350.608 55.0908 360.231 71.293C369.855 87.4952 379.033 106.333 373.936 124.478C370.49 136.715 361.151 145.572 349.563 150.88C338.429 155.807 326.181 157.673 314.085 156.283C306.82 155.366 299.664 153.732 292.721 151.406C283.616 148.449 274.722 144.616 265.843 140.738C265.836 140.738 265.836 140.738 265.829 140.731C265.676 140.665 265.515 140.592 265.362 140.527C258.491 137.526 251.627 134.517 244.662 131.867C236.5 128.675 228.028 126.341 219.383 124.901C206.248 122.842 193.003 123.587 181.284 129.545C162.183 139.249 151.946 160.219 143.936 180.094C135.846 200.188 128.596 220.954 126.266 242.413Z" fill="#2196F3"/>
<path d="M0.730164 162.074V226.576C0.730051 228.656 1.1396 230.716 1.93546 232.637C2.73131 234.559 3.89787 236.305 5.3685 237.775C6.83914 239.246 8.58505 240.412 10.5066 241.208C12.4281 242.004 14.4875 242.414 16.5673 242.414H76.9368C77.9809 232.681 77.1048 222.984 73.2714 213.937C64.9184 194.208 44.7076 182.541 25.4388 173.173C17.3413 169.237 9.10508 165.44 0.730164 162.074Z" fill="#2196F3"/>
<path d="M63.9962 227.517C63.9962 231.718 65.6647 235.746 68.6347 238.716C71.6048 241.686 75.633 243.355 79.8333 243.355H140.203C141.247 233.622 140.371 223.925 136.537 214.878C134.574 210.24 129.986 205.102 124.009 199.912C100.557 179.549 63.9962 196.459 63.9962 227.517Z" fill="#2196F3"/>
<path d="M0 226.575V16.5673C0.00497822 12.1749 1.75205 7.96382 4.85794 4.85794C7.96382 1.75205 12.1749 0.00497822 16.5673 0H489.433C493.825 0.00497822 498.036 1.75205 501.142 4.85794C504.248 7.96382 505.995 12.1749 506 16.5673V226.575C505.995 230.968 504.248 235.179 501.142 238.285C498.036 241.391 493.825 243.138 489.433 243.143H16.5673C12.1748 243.138 7.96372 241.391 4.85782 238.285C1.75193 235.179 0.00490283 230.968 0 226.575ZM16.5673 1.46032C12.562 1.46479 8.72211 3.05785 5.88998 5.88998C3.05785 8.72211 1.46479 12.562 1.46032 16.5673V226.575C1.46472 230.581 3.05773 234.421 5.88987 237.253C8.72201 240.085 12.562 241.678 16.5673 241.683H489.433C493.438 241.678 497.278 240.085 500.11 237.253C502.942 234.421 504.535 230.581 504.54 226.575V16.5673C504.535 12.562 502.942 8.72211 500.11 5.88998C497.278 3.05785 493.438 1.46479 489.433 1.46032H16.5673Z" fill="#49525A"/>
<path d="M156.48 241.895H177.954C181.627 229.529 186.928 216.42 191.769 204.475C201.057 181.571 212.922 157.405 235.067 146.222C244.523 141.446 254.833 139.581 265.362 139.683C279.906 139.821 294.86 143.725 308.551 148.899C314.151 151.011 319.7 153.334 325.227 155.707C346.052 164.655 366.649 174.401 389.043 177.036C417.381 180.367 450.698 167.688 458.438 140.38C464.345 119.472 453.706 97.7653 442.549 79.0925C431.392 60.4197 418.921 40.4406 420.959 18.8214C420.966 18.7489 420.973 18.669 420.988 18.5965C421.754 10.8312 426.391 5.25063 432.867 1.67285H404.669C404.296 21.8406 415.964 39.6424 426.464 57.2193C437.621 75.8848 448.259 97.5984 442.352 118.506C434.612 145.808 370.524 113.805 342.187 110.466C334.184 109.53 346.896 112.861 339.266 110.466C327.299 106.714 325.972 141.127 314.326 136.076C307.076 132.926 299.818 129.799 292.465 127.019C289.42 125.865 286.31 124.784 283.163 123.782C283.156 123.782 283.156 123.782 283.148 123.775C262.018 117.084 238.908 114.479 219.384 124.152C219.252 124.218 219.113 124.283 218.982 124.348C196.836 135.524 184.971 159.691 175.684 182.595C168.01 201.529 160.263 221.923 156.48 241.895Z" fill="#49525A"/>
<path d="M156.714 91.3711H17.0405C15.896 91.3711 14.7984 91.8257 13.9891 92.635C13.1799 93.4443 12.7252 94.5419 12.7252 95.6863C12.7252 96.8308 13.1799 97.9284 13.9891 98.7377C14.7984 99.5469 15.896 100.002 17.0405 100.002H156.714C157.858 100.002 158.956 99.5469 159.765 98.7377C160.574 97.9284 161.029 96.8308 161.029 95.6863C161.029 94.5419 160.574 93.4443 159.765 92.635C158.956 91.8257 157.858 91.3711 156.714 91.3711Z" fill="#49525A"/>
<path d="M60.4437 67.1748H17.1377C15.9932 67.1748 14.8956 67.6294 14.0863 68.4387C13.277 69.248 12.8224 70.3456 12.8224 71.49C12.8224 72.6345 13.277 73.7321 14.0863 74.5414C14.8956 75.3507 15.9932 75.8053 17.1377 75.8053H60.4437C61.5882 75.8053 62.6858 75.3507 63.495 74.5414C64.3043 73.7321 64.7589 72.6345 64.7589 71.49C64.7589 70.3456 64.3043 69.248 63.495 68.4387C62.6858 67.6294 61.5881 67.1748 60.4437 67.1748Z" fill="#49525A"/>
<path d="M253.08 179.91C281.987 179.91 305.421 156.476 305.421 127.569C305.421 98.6616 281.987 75.2275 253.08 75.2275C224.172 75.2275 200.738 98.6616 200.738 127.569C200.738 156.476 224.172 179.91 253.08 179.91Z" fill="white"/>
<path d="M253.135 181.593C242.639 181.593 232.378 178.48 223.65 172.648C214.923 166.817 208.12 158.528 204.103 148.831C200.087 139.133 199.035 128.462 201.083 118.167C203.131 107.872 208.186 98.4159 215.608 90.9937C223.03 83.5715 232.486 78.5169 242.781 76.469C253.076 74.4212 263.747 75.4722 273.445 79.489C283.142 83.5058 291.431 90.3081 297.262 99.0356C303.094 107.763 306.207 118.024 306.207 128.521C306.191 142.591 300.594 156.081 290.645 166.03C280.696 175.98 267.206 181.577 253.135 181.593ZM253.135 76.9096C242.927 76.9096 232.949 79.9365 224.461 85.6077C215.974 91.2788 209.359 99.3394 205.452 108.77C201.546 118.201 200.524 128.578 202.516 138.59C204.507 148.602 209.423 157.798 216.641 165.016C223.859 172.234 233.055 177.149 243.066 179.141C253.078 181.132 263.455 180.11 272.886 176.203C282.317 172.297 290.377 165.682 296.049 157.194C301.72 148.707 304.747 138.728 304.746 128.521C304.731 114.837 299.288 101.719 289.613 92.0431C279.937 82.3675 266.819 76.925 253.135 76.9096Z" fill="#49525A"/>
<path d="M245.939 154.811C245.035 154.811 244.144 154.6 243.335 154.196C242.527 153.792 241.824 153.205 241.282 152.481L227.002 133.442C226.543 132.83 226.21 132.134 226.02 131.393C225.83 130.653 225.788 129.882 225.896 129.125C226.005 128.368 226.261 127.64 226.65 126.982C227.04 126.324 227.555 125.749 228.167 125.291C228.779 124.832 229.475 124.498 230.215 124.308C230.956 124.119 231.727 124.077 232.484 124.185C233.24 124.293 233.969 124.549 234.627 124.939C235.284 125.328 235.859 125.844 236.318 126.455L245.66 138.911L269.654 102.92C270.078 102.284 270.624 101.737 271.259 101.312C271.894 100.886 272.607 100.59 273.357 100.44C274.107 100.29 274.878 100.289 275.629 100.438C276.379 100.586 277.092 100.881 277.728 101.305C278.365 101.729 278.911 102.274 279.336 102.91C279.762 103.545 280.058 104.258 280.208 105.008C280.358 105.757 280.359 106.529 280.21 107.279C280.062 108.029 279.767 108.743 279.343 109.379L250.784 152.218C250.267 152.993 249.573 153.632 248.758 154.083C247.943 154.534 247.032 154.783 246.101 154.809C246.047 154.81 245.993 154.811 245.939 154.811Z" fill="#2196F3"/>
</svg>
