<svg width="33" height="33" viewBox="0 0 33 33" fill="none" xmlns="http://www.w3.org/2000/svg">
<path opacity="0.4" d="M23.8734 10.8603C23.78 10.847 23.6867 10.847 23.5934 10.8603C21.5267 10.7937 19.8867 9.10032 19.8867 7.02032C19.8867 4.90032 21.6067 3.16699 23.7401 3.16699C25.8601 3.16699 27.5934 4.88699 27.5934 7.02032C27.5801 9.10032 25.94 10.7937 23.8734 10.8603Z" fill="#FAF9F9"/>
<path opacity="0.4" d="M28.22 20.0995C26.7266 21.0995 24.6333 21.4729 22.7 21.2195C23.2066 20.1262 23.4733 18.9129 23.4866 17.6329C23.4866 16.2996 23.1933 15.0329 22.6333 13.9262C24.6066 13.6596 26.7 14.0329 28.2066 15.0329C30.3133 16.4195 30.3133 18.6995 28.22 20.0995Z" fill="#FAF9F9"/>
<path opacity="0.4" d="M9.0867 10.8603C9.18003 10.847 9.27337 10.847 9.3667 10.8603C11.4334 10.7937 13.0734 9.10032 13.0734 7.02032C13.0734 4.90032 11.3534 3.16699 9.22003 3.16699C7.10003 3.16699 5.3667 4.88699 5.3667 7.02032C5.38003 9.10032 7.02003 10.7937 9.0867 10.8603Z" fill="#FAF9F9"/>
<path opacity="0.4" d="M9.23337 17.6332C9.23337 18.9265 9.51337 20.1532 10.02 21.2598C8.14003 21.4598 6.18003 21.0598 4.74003 20.1132C2.63337 18.7132 2.63337 16.4331 4.74003 15.0331C6.1667 14.0731 8.18003 13.6865 10.0734 13.8998C9.5267 15.0198 9.23337 16.2865 9.23337 17.6332Z" fill="#FAF9F9"/>
<path d="M16.66 21.66C16.5534 21.6467 16.4334 21.6467 16.3134 21.66C13.86 21.58 11.9 19.5667 11.9 17.0867C11.9 14.5533 13.94 12.5 16.4867 12.5C19.02 12.5 21.0734 14.5533 21.0734 17.0867C21.0734 19.5667 19.1267 21.58 16.66 21.66Z" fill="#FAF9F9"/>
<path d="M12.3267 24.4195C10.3133 25.7662 10.3133 27.9795 12.3267 29.3129C14.62 30.8462 18.38 30.8462 20.6733 29.3129C22.6867 27.9662 22.6867 25.7529 20.6733 24.4195C18.3933 22.8862 14.6333 22.8862 12.3267 24.4195Z" fill="#FAF9F9"/>
</svg>
