<svg width="506" height="244" viewBox="0 0 506 244" fill="none" xmlns="http://www.w3.org/2000/svg">
<path d="M0 226.575V16.5673C0.00497822 12.1749 1.75205 7.96382 4.85794 4.85794C7.96382 1.75205 12.1749 0.00497822 16.5673 0H489.433C493.825 0.00497822 498.036 1.75205 501.142 4.85794C504.248 7.96382 505.995 12.1749 506 16.5673V226.575C505.995 230.968 504.248 235.179 501.142 238.285C498.036 241.391 493.825 243.138 489.433 243.143H16.5673C12.1748 243.138 7.96372 241.391 4.85782 238.285C1.75193 235.179 0.00490283 230.968 0 226.575ZM16.5673 1.46032C12.562 1.46479 8.72211 3.05785 5.88998 5.88998C3.05785 8.72211 1.46479 12.562 1.46032 16.5673V226.575C1.46472 230.581 3.05773 234.421 5.88987 237.253C8.72201 240.085 12.562 241.678 16.5673 241.683H489.433C493.438 241.678 497.278 240.085 500.11 237.253C502.942 234.421 504.535 230.581 504.54 226.575V16.5673C504.535 12.562 502.942 8.72211 500.11 5.88998C497.278 3.05785 493.438 1.46479 489.433 1.46032H16.5673Z" fill="#49525A"/>
</svg>
