<svg width="138" height="48" viewBox="0 0 138 48" fill="none" xmlns="http://www.w3.org/2000/svg">
<g clip-path="url(#clip0_3729_2444)">
<path d="M43.323 0.553616C39.0178 1.72953 33.9784 4.88773 32.0093 7.67635C31.3751 8.58348 31.542 8.48269 33.5111 7.00439C37.3824 4.04779 40.9535 2.56948 45.6925 1.99832C55.0038 0.822397 64.6822 5.39169 69.5548 13.3208C70.9231 15.6054 71.2235 15.8742 70.6895 14.4967C68.32 8.21391 63.0135 3.20784 56.5056 1.05758C53.0014 -0.118341 46.6603 -0.353525 43.323 0.553616Z" fill="#CFD4D8"/>
<path d="M0.971553 10.7002C0.337451 11.3386 0.304077 11.809 0.304077 29.1118C0.304077 45.9107 0.337451 46.9186 0.904806 47.4226C1.47216 47.9266 2.87386 47.9938 14.4212 47.9938H27.3035L27.8041 47.2546C28.1712 46.7171 28.3381 45.7091 28.3381 43.9621C28.3381 39.6952 28.9054 39.9303 18.4594 39.9303H9.64872V36.5705V33.2107H17.2914C26.369 33.2107 26.0019 33.3787 26.0019 29.2462C26.0019 27.096 25.9018 26.6928 25.1675 25.9872L24.3666 25.1473H16.991H9.64872V21.7875V18.4277H18.3259C28.8386 18.4277 28.3381 18.6293 28.3381 14.228C28.3381 9.6923 29.4394 10.0283 14.3211 10.0283C2.07289 10.0283 1.60566 10.0619 0.971553 10.7002Z" fill="#CFD4D8"/>
<path d="M47.1477 10.7585C46.3466 11.5649 32.3964 45.3643 32.3964 46.473C32.3964 47.9177 33.0639 48.1865 36.3012 48.0521C40.9401 47.8841 44.2775 45.9354 46.8139 41.9709L47.9152 40.2238L48.1489 42.1389C48.2824 43.214 48.6161 44.5243 48.883 45.0619C49.5839 46.4058 51.2193 47.7161 52.5208 47.9513C53.1215 48.0521 57.2599 48.1193 61.7653 48.0521L69.9419 47.9513L70.2423 47.0442C70.5093 46.2714 69.5749 43.7516 63.2672 28.4646C58.7283 17.4781 55.7581 10.6577 55.391 10.4562C55.0572 10.2882 53.2216 10.1538 51.286 10.1538C48.3157 10.1538 47.6482 10.2546 47.1477 10.7585ZM56.6926 28.3974C56.7593 35.0161 56.6926 36.0577 56.2587 36.2257C55.8248 36.3937 54.0894 36.0913 52.087 35.5201C51.7532 35.4193 51.286 35.8561 50.752 36.8641C49.4838 39.1823 48.6829 39.1151 48.3157 36.6289C48.1489 35.4865 48.4159 34.8145 51.1191 30.0773C52.7545 27.1879 54.0894 24.6681 54.0894 24.5001C54.0894 24.3321 52.3206 26.3815 50.1847 29.1029C48.0487 31.7907 46.1464 34.0082 45.9462 34.0082C45.746 34.0082 44.8448 33.8066 43.9104 33.5714C42.6756 33.2354 42.2417 32.9667 42.2417 32.4963C42.2417 31.7571 55.3576 20.5691 56.0918 20.6699C56.5257 20.7371 56.5924 21.913 56.6926 28.3974Z" fill="#CFD4D8"/>
<path d="M84.1724 10.3643C77.5978 11.5738 73.5261 15.5047 73.1257 21.0484C72.6584 27.8352 76.0626 31.0269 86.0746 33.2444C93.1169 34.7899 94.4519 35.697 93.4167 38.2168C92.8491 39.6279 91.281 40.2663 88.3441 40.2663C85.1068 40.2663 82.8374 39.2583 81.5025 37.1753C81.0018 36.369 80.4345 35.6298 80.2343 35.4954C79.6001 35.0251 73.2258 35.193 72.5583 35.697C71.724 36.3018 71.8241 37.8137 72.892 40.0647C74.6275 43.7604 78.7992 46.7171 83.6384 47.6578C86.3416 48.1954 92.3155 47.9266 94.8187 47.1875C98.6569 46.0452 101.794 43.2565 102.962 40.0311C103.496 38.5192 103.562 34.8571 103.096 33.2444C101.961 29.2127 98.7229 27.264 89.8793 25.2816C84.139 24.0049 83.0711 23.3666 83.0711 21.1491C83.0711 18.9989 85.0067 17.7558 88.3441 17.7558C91.0474 17.7558 92.3485 18.4277 93.8504 20.7124L94.7857 22.1235H98.59C102.028 22.1235 102.428 22.0563 102.762 21.4851C103.296 20.4436 103.162 19.5029 102.227 17.6214C100.659 14.4632 97.9225 12.2794 94.0173 11.0699C91.3811 10.2635 86.642 9.92746 84.1724 10.3643Z" fill="#CFD4D8"/>
<path d="M109.77 10.7001C109.136 11.3385 109.103 11.8089 109.103 28.9437C109.103 44.2979 109.169 46.5826 109.637 47.2545L110.138 47.9937H123.087C138.305 47.9937 137.137 48.3296 137.137 44.0963C137.137 39.6951 137.737 39.9302 127.259 39.9302H118.448V36.5704V33.2106H126.123H133.799L134.333 32.3707C135.001 31.3628 134.901 26.4575 134.2 25.752C133.866 25.416 131.83 25.2816 126.123 25.2144L118.448 25.1136V21.7874V18.4612L127.325 18.3604C137.804 18.226 137.137 18.5284 137.137 14.1607C137.137 9.6922 138.238 10.0282 123.12 10.0282C110.871 10.0282 110.405 10.0618 109.77 10.7001Z" fill="#CFD4D8"/>
</g>
<defs>
<clipPath id="clip0_3729_2444">
<rect width="137.538" height="48" fill="white" transform="translate(0.304077)"/>
</clipPath>
</defs>
</svg>
