<svg width="142" height="48" viewBox="0 0 142 48" fill="none" xmlns="http://www.w3.org/2000/svg">
<path d="M12.9412 0C15.1221 0 16.7842 0.251836 17.9175 0.755509C19.0508 1.25918 20.0581 1.81322 20.9295 2.42267C21.4533 2.72991 21.8764 2.95656 22.2038 3.1127C22.5311 3.2638 22.8485 3.34439 23.1557 3.34439C23.5939 3.34439 23.9112 3.10262 24.1026 2.62413C24.299 2.14565 24.4653 1.42539 24.5962 0.463379H26.1022C26.0569 1.20378 26.0015 2.09024 25.936 3.1127C25.8705 4.14019 25.8252 5.49003 25.805 7.1723C25.7849 8.85456 25.7698 11.0707 25.7698 13.8208H24.2638C24.1328 11.7255 23.6745 9.71584 22.8888 7.79685C22.103 5.87786 20.9597 4.3064 19.4487 3.08248C17.9427 1.86359 15.9683 1.24911 13.5255 1.24911C11.2136 1.24911 9.29967 1.94921 7.79369 3.34439C6.28771 4.73956 5.5322 6.57293 5.5322 8.84449C5.5322 10.8088 6.03587 12.4558 7.03818 13.7855C8.04049 15.1203 9.38529 16.319 11.0676 17.3868C12.7448 18.4546 14.5681 19.6029 16.5324 20.8269C18.804 22.222 20.8187 23.6071 22.5866 24.9822C24.3544 26.3572 25.7496 27.8732 26.7771 29.5354C27.8046 31.1924 28.3183 33.2021 28.3183 35.5593C28.3183 38.3547 27.6837 40.6665 26.4195 42.4999C25.1553 44.3333 23.473 45.7083 21.3777 46.625C19.2825 47.5417 16.9706 48 14.4371 48C12.1253 48 10.2919 47.7381 8.93703 47.2143C7.58215 46.6904 6.42874 46.1465 5.46672 45.5773C4.50471 44.9679 3.76431 44.6606 3.24049 44.6606C2.80229 44.6606 2.48498 44.9024 2.28855 45.3809C2.09211 45.8594 1.93094 46.5796 1.79998 47.5417H0.304077C0.389701 46.625 0.445105 45.5471 0.470289 44.298C0.490436 43.0539 0.510583 41.4271 0.535767 39.4225C0.555913 37.4128 0.565987 34.8844 0.565987 31.8271H2.07197C2.24825 34.4462 2.73682 36.889 3.54269 39.1605C4.34857 41.4321 5.59264 43.2504 7.27491 44.6304C8.95214 46.0055 11.1935 46.6904 13.9838 46.6904C15.4243 46.6904 16.7893 46.3983 18.0736 45.809C19.363 45.2197 20.4208 44.2829 21.2518 42.9935C22.0829 41.7041 22.4959 40.0369 22.4959 37.982C22.4959 36.1939 22.0728 34.6325 21.2216 33.3028C20.3704 31.9731 19.1817 30.7291 17.6556 29.5706C16.1295 28.4172 14.3364 27.2235 12.2864 26.0046C10.2365 24.7404 8.31247 23.451 6.52443 22.1414C4.7364 20.8319 3.30597 19.3158 2.23314 17.5882C1.16536 15.8657 0.626428 13.7805 0.626428 11.3326C0.626428 8.75887 1.20565 6.62833 2.3641 4.9511C3.51751 3.27387 5.0386 2.0298 6.91226 1.21889C8.79096 0.413012 10.7956 0.0100735 12.9362 0.0100735L12.9412 0Z" fill="#CFD4D8"/>
<path d="M39.4495 26.8708C40.2655 26.8708 41.0562 26.9716 41.8168 27.1781C42.5824 27.3846 43.2674 27.6868 43.8818 28.0948C44.4661 28.4776 44.9144 28.9158 45.2166 29.4144C45.5238 29.913 45.6749 30.452 45.6749 31.0362C45.6749 31.7263 45.4835 32.2551 45.1007 32.6228C44.7179 32.9905 44.2344 33.1768 43.6501 33.1768C43.0659 33.1768 42.5975 33.0106 42.1794 32.6782C41.7614 32.3458 41.5498 31.8774 41.5498 31.2629C41.5498 30.6484 41.711 30.2052 42.0283 29.8476C42.3456 29.4899 42.7234 29.2633 43.1565 29.1575C42.8997 28.6992 42.4514 28.3164 41.8017 28.0092C41.1519 27.7019 40.4569 27.5508 39.7215 27.5508C39.0869 27.5508 38.4472 27.7019 37.8126 28.0092C37.178 28.3164 36.5887 28.8201 36.0548 29.5202C35.5209 30.2203 35.0877 31.1773 34.7553 32.3861C34.4229 33.5949 34.2567 35.1059 34.2567 36.9141C34.2567 39.1554 34.5085 40.9384 35.0222 42.2631C35.5309 43.5877 36.2008 44.5346 37.0269 45.1088C37.8529 45.683 38.7645 45.9701 39.7568 45.9701C40.4166 45.9701 41.0915 45.8442 41.7815 45.5873C42.4665 45.3355 43.1163 44.9174 43.7307 44.3483C44.3402 43.7741 44.864 43.0035 45.2972 42.0364L46.0224 42.3034C45.7656 43.1193 45.3475 43.9403 44.7633 44.7663C44.179 45.5924 43.4134 46.2774 42.4716 46.8113C41.5297 47.3451 40.3712 47.6121 38.9962 47.6121C37.4147 47.6121 35.9893 47.2041 34.72 46.3882C33.4457 45.5722 32.4334 44.4087 31.6829 42.8927C30.9324 41.3766 30.5547 39.5785 30.5547 37.4883C30.5547 35.398 30.9324 33.5596 31.6829 31.968C32.4334 30.3764 33.486 29.1273 34.8359 28.2257C36.1857 27.3242 37.727 26.8708 39.4596 26.8708H39.4495Z" fill="#CFD4D8"/>
<path d="M54.459 17.5127V31.4594C55.1188 29.7268 56.0455 28.5331 57.2292 27.8682C58.4128 27.2084 59.6518 26.876 60.9513 26.876C61.9184 26.876 62.7293 27.0019 63.374 27.2588C64.0237 27.5156 64.5626 27.8682 64.9958 28.3265C65.4793 28.8353 65.8218 29.4749 66.0283 30.2355C66.2298 31.001 66.3356 32.0285 66.3356 33.328V43.5274C66.3356 44.5952 66.5572 45.3205 67.0054 45.7032C67.4487 46.086 68.1941 46.2774 69.2417 46.2774V47.0783C68.8086 47.0531 68.1488 47.0229 67.2573 46.9826C66.3658 46.9423 65.4995 46.9272 64.6583 46.9272C63.8172 46.9272 62.9962 46.9473 62.1954 46.9826C61.3945 47.0229 60.7901 47.0531 60.3821 47.0783V46.2774C61.2988 46.2774 61.9486 46.086 62.3314 45.7032C62.7142 45.3205 62.9055 44.5952 62.9055 43.5274V32.4869C62.9055 31.6961 62.8401 30.9708 62.7142 30.311C62.5882 29.6512 62.3011 29.1123 61.8529 28.7093C61.4096 28.3014 60.7246 28.0999 59.808 28.0999C58.7654 28.0999 57.8386 28.392 57.0378 28.9813C56.2369 29.5656 55.6073 30.3815 55.149 31.4241C54.6906 32.4667 54.464 33.6655 54.464 35.0153V43.5324C54.464 44.6002 54.6554 45.3255 55.0382 45.7083C55.421 46.0911 56.0707 46.2825 56.9874 46.2825V47.0833C56.5794 47.0581 55.975 47.0279 55.1742 46.9876C54.3733 46.9473 53.5523 46.9322 52.7112 46.9322C51.8701 46.9322 51.0038 46.9524 50.1123 46.9876C49.2208 47.0279 48.561 47.0581 48.1278 47.0833V46.2825C49.1704 46.2825 49.9158 46.0911 50.3641 45.7083C50.8073 45.3255 51.034 44.6002 51.034 43.5324V21.7536C51.034 20.6103 50.8275 19.7591 50.4245 19.2151C50.0166 18.6661 49.251 18.3941 48.1328 18.3941V17.5127H54.4741H54.459Z" fill="#CFD4D8"/>
<path d="M88.2604 26.9869V42.9533C88.2604 44.1017 88.472 44.9478 88.89 45.4918C89.3081 46.0408 90.0686 46.3128 91.1616 46.3128V47.1136C90.3708 47.0381 89.5851 46.9978 88.7943 46.9978C88.0539 46.9978 87.3488 47.0381 86.6739 47.1136C85.9989 47.1892 85.3794 47.3302 84.8203 47.5317V43.0238C84.1857 44.6809 83.2841 45.8545 82.1257 46.5546C80.9672 47.2547 79.7786 47.6022 78.5547 47.6022C77.6632 47.6022 76.8875 47.4763 76.2227 47.2194C75.5578 46.9676 75.0138 46.61 74.5807 46.1516C74.0972 45.6429 73.7647 44.9831 73.5884 44.1672C73.4122 43.3512 73.3215 42.3489 73.3215 41.1501V31.5653C73.3215 30.4169 73.115 29.5707 72.7121 29.0268C72.3041 28.4778 71.5385 28.2058 70.4203 28.2058V27.0272H76.7616V41.9913C76.7616 42.7821 76.812 43.5073 76.9127 44.1672C77.0134 44.832 77.2703 45.3659 77.6783 45.7739C78.0862 46.1818 78.7461 46.3833 79.6627 46.3833C80.655 46.3833 81.5414 46.0761 82.3171 45.4666C83.0928 44.8572 83.7022 44.0261 84.1505 42.9835C84.5937 41.9409 84.8203 40.7674 84.8203 39.4679V31.5602C84.8203 30.4119 84.6138 29.5657 84.2109 29.0217C83.8029 28.4727 83.0373 28.2007 81.9192 28.2007V26.9768H88.2604V26.9869Z" fill="#CFD4D8"/>
<path d="M99.452 26.9867V31.4946C100.112 29.7619 101.039 28.5582 102.222 27.8832C103.406 27.2083 104.65 26.8708 105.944 26.8708C106.911 26.8708 107.722 26.9968 108.372 27.2536C109.022 27.5105 109.561 27.8631 109.994 28.3214C110.477 28.8301 110.82 29.4698 111.026 30.2303C111.228 30.9959 111.334 32.0234 111.334 33.3229V43.5223C111.334 44.5901 111.555 45.3153 112.004 45.6981C112.447 46.0809 113.192 46.2723 114.24 46.2723V47.0732C113.807 47.048 113.147 47.0178 112.255 46.9775C111.364 46.9372 110.498 46.9221 109.656 46.9221C108.815 46.9221 107.994 46.9422 107.193 46.9775C106.393 47.0127 105.788 47.048 105.38 47.0732V46.2723C106.297 46.2723 106.947 46.0809 107.329 45.6981C107.712 45.3153 107.904 44.5901 107.904 43.5223V32.4818C107.904 31.691 107.838 30.9657 107.712 30.3059C107.586 29.6461 107.299 29.1072 106.851 28.7042C106.408 28.2962 105.723 28.0948 104.806 28.0948C103.738 28.0948 102.801 28.402 102.001 29.0115C101.2 29.6209 100.575 30.457 100.127 31.5147C99.6837 32.5724 99.4571 33.751 99.4571 35.0455V43.5223C99.4571 44.5901 99.6484 45.3153 100.031 45.6981C100.414 46.0809 101.064 46.2723 101.98 46.2723V47.0732C101.572 47.048 100.968 47.0178 100.167 46.9775C99.3664 46.9372 98.5454 46.9221 97.7043 46.9221C96.8631 46.9221 95.9968 46.9422 95.1053 46.9775C94.2138 47.0178 93.554 47.048 93.1208 47.0732V46.2723C94.1635 46.2723 94.9089 46.0809 95.3572 45.6981C95.8004 45.3153 96.027 44.5901 96.027 43.5223V31.5651C96.027 30.4167 95.8205 29.5705 95.4176 29.0266C95.0096 28.4776 94.244 28.2056 93.1259 28.2056V26.9817H99.4671L99.452 26.9867Z" fill="#CFD4D8"/>
<path d="M121.337 47.3452C120.294 47.3452 119.387 47.1488 118.627 46.7509C117.866 46.353 117.282 45.804 116.889 45.0888C116.496 44.3736 116.295 43.5475 116.295 42.6057C116.295 41.4875 116.557 40.5708 117.076 39.8556C117.599 39.1404 118.264 38.5713 119.08 38.1381C119.896 37.7049 120.752 37.3423 121.659 37.0502C122.561 36.758 123.422 36.476 124.238 36.209C125.054 35.9421 125.719 35.6298 126.242 35.2722C126.766 34.9146 127.023 34.4462 127.023 33.8569V31.4896C127.023 30.4218 126.862 29.6059 126.545 29.0468C126.227 28.4877 125.799 28.11 125.265 27.9186C124.731 27.7272 124.132 27.6315 123.472 27.6315C122.812 27.6315 122.153 27.7221 121.427 27.8984C120.702 28.0747 120.123 28.4474 119.69 29.0065C120.173 29.1072 120.591 29.3641 120.949 29.7721C121.306 30.1801 121.483 30.7039 121.483 31.3385C121.483 31.9731 121.276 32.4768 120.873 32.8495C120.465 33.2172 119.941 33.4036 119.307 33.4036C118.566 33.4036 118.027 33.1668 117.685 32.6984C117.342 32.23 117.171 31.7012 117.171 31.1119C117.171 30.4521 117.337 29.9131 117.67 29.5102C118.002 29.1022 118.42 28.7194 118.929 28.3618C119.513 27.9538 120.274 27.6063 121.201 27.3142C122.127 27.022 123.18 26.876 124.354 26.876C125.396 26.876 126.288 26.9969 127.028 27.2386C127.769 27.4804 128.378 27.833 128.861 28.2913C129.521 28.9007 129.954 29.6462 130.161 30.5276C130.367 31.409 130.468 32.4567 130.468 33.6806V44.298C130.468 44.9326 130.564 45.391 130.755 45.673C130.947 45.9551 131.244 46.0911 131.652 46.0911C131.934 46.0911 132.201 46.0256 132.453 45.8997C132.705 45.7738 133.012 45.5673 133.369 45.2902L133.787 45.94C133.253 46.348 132.745 46.6854 132.261 46.9524C131.778 47.2193 131.128 47.3553 130.312 47.3553C129.572 47.3553 128.962 47.2294 128.479 46.9725C127.995 46.7207 127.633 46.3429 127.391 45.8443C127.149 45.3456 127.028 44.7161 127.028 43.9555C126.338 45.1039 125.517 45.9551 124.565 46.5142C123.608 47.0732 122.535 47.3553 121.337 47.3553V47.3452ZM122.712 45.8191C123.553 45.8191 124.333 45.5773 125.059 45.0938C125.784 44.6103 126.439 43.885 127.028 42.9179V35.4334C126.721 35.8665 126.278 36.2292 125.693 36.5213C125.109 36.8134 124.469 37.1056 123.784 37.3977C123.099 37.6898 122.44 38.0323 121.815 38.4302C121.191 38.8231 120.677 39.3419 120.269 39.9765C119.861 40.6111 119.659 41.4422 119.659 42.4596C119.659 43.477 119.931 44.293 120.48 44.9024C121.029 45.5119 121.775 45.8191 122.717 45.8191H122.712Z" fill="#CFD4D8"/>
<path d="M138.638 42.7266C139.298 42.7266 139.872 42.9683 140.355 43.4518C140.839 43.9354 141.081 44.5096 141.081 45.1694C141.081 45.8292 140.839 46.4034 140.355 46.8869C139.872 47.3704 139.298 47.6122 138.638 47.6122C137.978 47.6122 137.404 47.3704 136.92 46.8869C136.437 46.4034 136.195 45.8292 136.195 45.1694C136.195 44.5096 136.437 43.9354 136.92 43.4518C137.404 42.9683 137.978 42.7266 138.638 42.7266Z" fill="#CFD4D8"/>
<path d="M13.5053 31.8372C14.6587 31.8372 15.6711 32.0991 16.5374 32.6229C17.4038 33.1467 18.0787 33.8972 18.5622 34.8743C19.0407 35.8514 19.2825 37.0401 19.2825 38.4353C19.2825 39.8304 19.0357 40.9839 18.5421 42.0063C18.0485 43.0288 17.3685 43.8246 16.4921 44.3937C15.6157 44.9629 14.6134 45.25 13.4852 45.25C12.357 45.25 11.3194 44.988 10.4531 44.4642C9.58676 43.9404 8.91184 43.1899 8.42831 42.2027C7.94982 41.2206 7.70806 40.0369 7.70806 38.6518C7.70806 37.2667 7.95486 36.1033 8.4535 35.0808C8.95213 34.0584 9.63209 33.2626 10.5034 32.6934C11.3698 32.1243 12.3721 31.8372 13.5003 31.8372H13.5053ZM13.4348 32.1645C12.6441 32.1645 11.9591 32.4365 11.3748 32.9855C10.7905 33.5345 10.3372 34.285 10.0199 35.247C9.69757 36.209 9.53639 37.3171 9.53639 38.5813C9.53639 39.8456 9.71771 40.9889 10.0753 41.9408C10.4329 42.8928 10.9215 43.6281 11.5309 44.1469C12.1454 44.6657 12.8203 44.9226 13.5607 44.9226C14.3515 44.9226 15.0365 44.6506 15.6208 44.1016C16.205 43.5526 16.6583 42.7971 16.9756 41.8351C17.298 40.868 17.4592 39.7599 17.4592 38.5108C17.4592 37.2617 17.2778 36.0882 16.9202 35.1412C16.5626 34.1943 16.0791 33.464 15.4697 32.9452C14.8602 32.4315 14.1803 32.1696 13.4298 32.1696L13.4348 32.1645Z" fill="#CFD4D8"/>
</svg>
