<svg width="128" height="48" viewBox="0 0 128 48" fill="none" xmlns="http://www.w3.org/2000/svg">
<g clip-path="url(#clip0_3729_2599)">
<path d="M46.8828 0.000117626C47.9913 0.000117626 48.8491 0.356287 49.4523 1.06448C50.0554 1.77475 50.357 2.7625 50.357 4.02566V8.72212C50.357 9.948 50.0554 10.9254 49.4523 11.6543C48.8491 12.3832 47.9933 12.7477 46.8828 12.7477H43.7245V21.8797H40.3074V1.63394C40.3074 1.47863 40.2544 1.30262 40.1484 1.10797C40.0425 0.913319 39.9141 0.739376 39.7613 0.581999C39.6085 0.387348 39.4271 0.192697 39.2152 -0.00195312H46.8808L46.8828 0.000117626ZM43.7245 2.7128V11.1739H45.8212C46.1269 11.1739 46.3897 11.0621 46.6098 10.8384C46.8298 10.6148 46.9399 10.3477 46.9399 10.037V2.7128C46.9399 2.40219 46.8298 2.1392 46.6098 1.92592C46.3897 1.71263 46.1269 1.60495 45.8212 1.60495H42.6629C42.8544 1.70227 43.0358 1.80995 43.209 1.92592C43.3435 2.02324 43.4616 2.1392 43.5676 2.27587C43.6735 2.41254 43.7265 2.55749 43.7265 2.7128H43.7245Z" fill="#CFD4D8"/>
<path d="M56.1826 13.1867V21.8817H52.7655V1.63394C52.7655 1.47863 52.7125 1.30262 52.6065 1.10797C52.5006 0.913319 52.3722 0.739376 52.2194 0.581999C52.0666 0.387348 51.8852 0.192697 51.6733 -0.00195312H59.3389C60.4494 -0.00195312 61.3052 0.354216 61.9083 1.06241C62.5115 1.77268 62.813 2.76043 62.813 4.02359V8.72005C62.813 9.8279 62.5644 10.739 62.0673 11.4472C61.5701 12.1575 60.8508 12.5799 59.9135 12.7166C60.2762 12.9899 60.5696 13.2653 60.7897 13.547C61.0097 13.8286 61.187 14.0874 61.3215 14.3194C61.456 14.5927 61.5599 14.8536 61.6373 15.1062L63.4467 21.8755H59.8014L58.0511 15.3402L56.1846 13.1804L56.1826 13.1867ZM56.1826 2.7128V11.1739H58.2793C58.5849 11.1739 58.8478 11.0621 59.0679 10.8384C59.2879 10.6148 59.398 10.3477 59.398 10.037V2.7128C59.398 2.40219 59.2879 2.1392 59.0679 1.92592C58.8478 1.71263 58.5849 1.60495 58.2793 1.60495H56.1826V2.7128Z" fill="#CFD4D8"/>
<path d="M64.0601 0H74.0974V2.22399H68.9585L68.4532 2.25298L68.4695 3.36083V9.62692H74.0954V11.8985H68.4695V20.3058H74.0954V21.8816H65.0524V2.21984C65.0524 1.2673 65.0218 0.867644 64.058 0H64.0601Z" fill="#CFD4D8"/>
<path d="M117.267 0H127.304V2.22399H122.165L121.66 2.25298L121.676 3.36083V9.62692H127.302V11.8985H121.676V20.3058H127.302V21.8816H118.259V2.21984C118.259 1.2673 118.228 0.867644 117.265 0H117.267Z" fill="#CFD4D8"/>
<path d="M82.5658 7.89163V2.71268C82.5658 2.40207 82.4599 2.13909 82.25 1.9258C82.0381 1.71251 81.7711 1.60483 81.4451 1.60483H79.379V8.54806C79.705 8.66402 80.0677 8.81104 80.4691 8.98499C80.8135 9.14029 81.2189 9.32459 81.6896 9.53995C82.1583 9.7553 82.6697 10.0162 83.226 10.3289C83.3014 10.3682 83.3748 10.4076 83.442 10.4449C83.5092 10.4842 83.5704 10.5236 83.6295 10.5608C83.8597 10.6975 84.0879 10.8569 84.3182 11.0433C84.5484 11.2297 84.7685 11.4264 84.9784 11.6418C85.1883 11.8571 85.3757 12.0849 85.5387 12.3272C85.7017 12.5715 85.8118 12.8283 85.8688 13.0996C85.9442 13.3149 85.9829 13.4992 85.9829 13.6545V17.8561C85.9829 19.0613 85.6854 20.0345 85.0925 20.7738C84.4995 21.513 83.6376 21.8816 82.5088 21.8816H79.4075C78.297 21.8816 77.4412 21.513 76.838 20.7738C76.2349 20.0345 75.9333 19.0633 75.9333 17.8561V12.4825H79.379V19.2269C79.3973 19.5189 79.5135 19.7674 79.7233 19.9703C79.9332 20.1753 80.1818 20.2768 80.4691 20.2768H81.4451C81.7711 20.2768 82.0381 20.1691 82.25 19.9558C82.4599 19.7425 82.5658 19.4692 82.5658 19.1399V13.7726C82.5475 13.5386 82.4884 13.2963 82.3926 13.0437C82.2969 12.8304 82.1522 12.5964 81.9627 12.3437C81.7711 12.0911 81.494 11.8468 81.1293 11.6148C80.9194 11.4595 80.5302 11.2607 79.9658 11.0164C79.4014 10.7741 78.8125 10.5153 78.1992 10.244C77.5105 9.95203 76.7545 9.64141 75.9313 9.31009V4.02554C75.9313 2.76238 76.2329 1.77463 76.836 1.06437C77.4412 0.356169 78.299 0 79.4095 0H82.5108C83.6397 0 84.5016 0.356169 85.0945 1.06437C85.6875 1.77463 85.985 2.76238 85.985 4.02554V7.89163H82.5679H82.5658Z" fill="#CFD4D8"/>
<path d="M87.4235 0H98.0152V2.11009H94.2027L94.1926 2.95496V21.8816H90.7754V2.11009H87.4215V0H87.4235Z" fill="#CFD4D8"/>
<path d="M64.596 26.1185H75.1876V28.2286H71.3752L71.365 29.0735V48.0001H67.9479V28.2265H64.5939V26.1165L64.596 26.1185Z" fill="#CFD4D8"/>
<path d="M100.136 1.63394C100.136 1.47863 100.083 1.30262 99.9774 1.10797C99.8714 0.913319 99.743 0.739376 99.5902 0.581999C99.4374 0.387348 99.2561 0.192697 99.0441 -0.00195312H103.551V21.8817H100.134V1.63394H100.136Z" fill="#CFD4D8"/>
<path d="M112.48 5.48542V2.71268C112.48 2.40207 112.374 2.13909 112.164 1.9258C111.953 1.71251 111.686 1.60483 111.36 1.60483H108.201C108.411 1.70216 108.592 1.80984 108.747 1.9258C108.9 2.02312 109.029 2.13909 109.135 2.27575C109.24 2.41242 109.293 2.55738 109.293 2.71268V19.2269C109.312 19.5189 109.428 19.7674 109.638 19.9703C109.848 20.1753 110.096 20.2768 110.384 20.2768H111.36C111.686 20.2768 111.953 20.1691 112.164 19.9558C112.376 19.7425 112.48 19.4692 112.48 19.1399V12.8676C112.48 12.8097 112.456 12.7268 112.409 12.6192C112.36 12.5115 112.274 12.3955 112.15 12.2692C112.026 12.1429 111.845 12.0124 111.604 11.8758C111.366 11.7391 111.044 11.6231 110.642 11.5258V9.62899H115.895V17.8561C115.895 19.0613 115.598 20.0345 115.005 20.7738C114.412 21.513 113.55 21.8816 112.421 21.8816H109.32C108.209 21.8816 107.354 21.513 106.75 20.7738C106.147 20.0345 105.846 19.0633 105.846 17.8561V4.02554C105.846 2.76238 106.147 1.77463 106.75 1.06437C107.356 0.356169 108.213 0 109.324 0H112.425C113.554 0 114.416 0.356169 115.009 1.06437C115.602 1.77463 115.899 2.76238 115.899 4.02554V7.2352L112.482 5.48542H112.48Z" fill="#CFD4D8"/>
<path d="M43.7225 37.3501V48H40.3074V27.7522C40.3074 27.5969 40.2544 27.4209 40.1484 27.2262C40.0425 27.0316 39.9141 26.8577 39.7613 26.7003C39.6085 26.5056 39.4271 26.311 39.2152 26.1163H43.7225V35.7453H47.9424V27.7501C47.9424 27.5948 47.8894 27.4188 47.7855 27.2242C47.6795 27.0295 47.5512 26.8556 47.3983 26.6982C47.2435 26.5036 47.0642 26.3089 46.8523 26.1143H51.3595V47.9959H47.9424V38.9798C47.9852 37.054 43.7775 36.7703 43.7225 37.346V37.3501Z" fill="#CFD4D8"/>
<path d="M57.1301 26.1184H60.2293C61.3582 26.1184 62.2201 26.4746 62.813 27.1828C63.406 27.893 63.7035 28.8808 63.7035 30.1439V43.9724C63.7035 45.1776 63.406 46.1509 62.813 46.8901C62.2201 47.6294 61.3582 47.998 60.2293 47.998H57.1301C56.0196 47.998 55.1638 47.6294 54.5606 46.8901C53.9575 46.1509 53.6559 45.1797 53.6559 43.9724V30.1439C53.6559 28.8808 53.9575 27.893 54.5606 27.1828C55.1638 26.4725 56.0196 26.1184 57.1301 26.1184ZM56.0114 27.7232C56.2213 27.8206 56.4026 27.9282 56.5575 28.0442C56.7103 28.1415 56.8407 28.2575 56.9446 28.3942C57.0506 28.5308 57.1036 28.6758 57.1036 28.8311V45.3453C57.1219 45.6373 57.236 45.8858 57.4479 46.0887C57.6578 46.2937 57.9064 46.3952 58.1937 46.3952H59.1697C59.4958 46.3952 59.7627 46.2875 59.9746 46.0742C60.1845 45.8609 60.2904 45.5876 60.2904 45.2584V28.8332C60.2904 28.5226 60.1845 28.2596 59.9746 28.0463C59.7627 27.833 59.4958 27.7253 59.1697 27.7253H56.0114V27.7232Z" fill="#CFD4D8"/>
<path d="M81.274 38.4374V46.4243H86.9019V48.0001H77.8589V27.7523C77.8589 27.597 77.8059 27.421 77.7 27.2264C77.594 27.0317 77.4656 26.8578 77.3128 26.7004C77.16 26.5058 76.9786 26.3111 76.7667 26.1165H86.9019V28.0671H81.763L80.2124 28.0464L81.274 29.1542V35.7454H86.9019V38.4374H81.274Z" fill="#CFD4D8"/>
<path d="M89.3124 27.7523C89.3124 27.597 89.2595 27.421 89.1535 27.2264C89.0475 27.0317 88.9192 26.8578 88.7663 26.7004C88.6135 26.5058 88.4322 26.3111 88.2203 26.1165H92.7275V46.3932H98.0681V47.9981H89.3124V27.7503V27.7523Z" fill="#CFD4D8"/>
<path d="M20.5505 0V38.4559C20.5505 39.9593 18.1033 41.2535 15.0937 41.2535H6.19743C3.28973 41.2535 0.842529 39.9593 0.842529 38.4559V30.3717H6.19743V39.4934C6.19743 40.1146 8.46327 40.6343 9.68789 40.6343H12.7973C14.0729 40.6343 15.0917 40.1166 15.0917 39.4934V0H20.5485H20.5505Z" fill="#CFD4D8"/>
<path d="M20.7441 6.74438H28.3424C31.352 6.74438 33.7992 8.04067 33.7992 9.54404V18.5622H28.3424V8.50659C28.3424 7.88537 27.3745 7.36561 26.1499 7.36561H22.9366C21.712 7.36561 20.7441 7.8833 20.7441 8.50659V46.2377C20.7441 46.859 21.712 47.3787 22.9366 47.3787H26.1499C27.3745 47.3787 28.3424 46.861 28.3424 46.2377V36.1842H33.7992V45.2024C33.7992 46.7057 31.352 48 28.3424 48H20.7441C17.7345 48 15.2873 46.7037 15.2873 45.2024V27.3732V9.54404C15.2873 8.04067 17.7345 6.74438 20.7441 6.74438Z" fill="#CFD4D8"/>
</g>
<defs>
<clipPath id="clip0_3729_2599">
<rect width="126.462" height="48" fill="white" transform="translate(0.842529)"/>
</clipPath>
</defs>
</svg>
