<svg width="125" height="48" viewBox="0 0 125 48" fill="none" xmlns="http://www.w3.org/2000/svg">
<g clip-path="url(#clip0_3729_2450)">
<mask id="mask0_3729_2450" style="mask-type:luminance" maskUnits="userSpaceOnUse" x="0" y="0" width="125" height="48">
<path d="M124.304 0H0.611755V47.373H124.304V0Z" fill="white"/>
</mask>
<g mask="url(#mask0_3729_2450)">
<path d="M37.9838 0.131352C36.0808 0.47349 34.6932 1.19724 33.3056 2.5658C32.0898 3.77644 31.4159 4.93445 31.0062 6.52671C30.7551 7.50048 30.7419 8.02685 30.7419 17.8567V28.1604H34.8385H38.9352V18.9621V9.77706L39.2392 9.32957C39.7281 8.61902 40.3228 8.29004 41.1553 8.29004C42.0275 8.29004 42.6222 8.60586 43.0583 9.31644L43.3622 9.80332L43.4018 18.9753L43.4415 28.1604H47.525H51.6216V19.0016C51.6216 9.90865 51.6216 9.82968 51.8991 9.34279C52.692 7.9479 54.9121 7.9479 55.705 9.34279C55.9825 9.82968 55.9825 9.90865 55.9825 19.0016V28.1604H60.1452H64.3212L64.2684 17.791C64.2287 8.44795 64.2023 7.35574 64.0041 6.57934C63.6076 5.145 62.9072 3.89488 61.8632 2.7895C60.132 0.960382 58.2819 0.15767 55.5201 0.0392373C52.4145 -0.0923547 50.2605 0.605082 48.4104 2.35525L47.4853 3.25007L46.7321 2.50001C45.7937 1.5657 44.7102 0.907745 43.3622 0.460331C42.4636 0.15767 42.0408 0.0918738 40.455 0.0523965C39.4374 0.0260781 38.3273 0.0655556 37.9838 0.131352Z" fill="#CFD4D8"/>
<path d="M107.587 0.144662C102.077 0.986847 97.3455 5.06619 95.8394 10.2772C94.6097 14.5408 95.3628 19.0676 97.874 22.6206C101.244 27.3578 106.9 29.5949 112.741 28.4895C116.045 27.871 119.018 26.0287 121.278 23.1863C122.23 22.002 122.877 20.8704 123.392 19.4623C124.093 17.5674 124.225 16.7253 124.211 14.2776C124.211 12.2906 124.172 11.8958 123.868 10.7641C122.969 7.40852 120.683 4.23716 117.763 2.30277C115.397 0.723667 113.388 0.118344 110.362 0.0525477C109.278 0.0393885 108.023 0.0657069 107.587 0.144662ZM112.331 8.6718C113.983 9.47454 115.225 11.0273 115.648 12.7775C116.19 15.0803 115.582 17.2648 113.97 18.8701C112.979 19.8439 111.988 20.3703 110.692 20.5677C105.908 21.3046 102.235 16.1199 104.35 11.6194C104.997 10.2246 106.411 8.93499 107.825 8.40862C108.38 8.19808 108.803 8.1586 109.966 8.18492C111.314 8.2244 111.486 8.25071 112.331 8.6718Z" fill="#CFD4D8"/>
<path d="M0.611755 0.683789C0.611755 0.710107 3.13582 6.85544 6.21491 14.343L11.8048 27.9627L15.2275 28.0022L18.6502 28.0285L24.2402 14.4483C27.306 6.97387 29.8169 0.815381 29.8169 0.749585C29.8169 0.696948 27.8479 0.67063 25.4427 0.683789L21.0686 0.723266L18.267 7.76342C16.2979 12.7245 15.4125 14.8167 15.2539 14.8431C15.0954 14.8693 14.9368 14.6194 14.6461 13.8561C14.2893 12.9482 9.67724 1.23648 9.50544 0.815381C9.45258 0.696948 8.43503 0.657471 5.02556 0.657471C2.59401 0.657471 0.611755 0.67063 0.611755 0.683789Z" fill="#CFD4D8"/>
<path d="M67.7044 0.749754C67.6515 0.789232 67.6118 6.96089 67.6118 14.4353V28.0419L74.8536 28.0024C81.9236 27.9498 82.1087 27.9498 83.1395 27.6471C85.756 26.9102 87.7647 25.7258 89.5487 23.8704C90.8438 22.5282 91.4782 21.6202 92.1914 20.0937C94.6234 14.8695 93.5002 8.76369 89.3373 4.65803C87.1304 2.48676 84.1835 1.13137 80.9458 0.789232C79.4921 0.644481 67.8497 0.605004 67.7044 0.749754ZM81.5537 8.43471C83.113 9.01371 84.4478 10.3428 85.0689 11.9351C85.4785 12.9878 85.571 15.0538 85.2539 16.1328C84.5799 18.4489 82.8487 20.1201 80.7079 20.528C80.3247 20.5938 79.0561 20.6596 77.9064 20.6596H75.8052V14.409V8.15837H78.316C80.5229 8.15837 80.9061 8.18469 81.5537 8.43471Z" fill="#CFD4D8"/>
<path d="M9.20142 33.0951V33.6873L64.7441 33.6609L120.273 33.6214L120.313 33.0557L120.352 32.5029H64.7837H9.20142V33.0951Z" fill="#CFD4D8"/>
<path d="M94.6361 37.2271C94.0286 37.4771 93.6584 38.3456 93.6457 39.5036C93.6457 39.9115 93.5929 40.0037 93.381 40.0037C93.1827 40.0037 93.1163 40.0958 93.1163 40.3327C93.1163 40.5695 93.1827 40.6616 93.381 40.6616C93.632 40.6616 93.6457 40.7669 93.672 42.8592L93.7111 45.07L94.0813 45.1095L94.4378 45.149V42.9119V40.6616H95.1654C95.8521 40.6616 95.8921 40.6485 95.8921 40.3327C95.8921 40.0169 95.8521 40.0037 95.1518 40.0037H94.4115L94.4651 39.1483C94.5306 38.1087 94.7289 37.8588 95.522 37.8455C95.9976 37.8324 96.0904 37.7929 96.1295 37.5561C96.1559 37.3587 96.0768 37.2534 95.8658 37.1877C95.4556 37.0823 94.9535 37.0955 94.6361 37.2271Z" fill="#CFD4D8"/>
<path d="M19.6678 41.1485L19.7074 45.0699H20.0378H20.3681L20.4078 41.1485L20.4343 37.2402H20.0378H19.6414L19.6678 41.1485Z" fill="#CFD4D8"/>
<path d="M25.9845 38.8065V40.3723L25.4955 40.1223C23.9758 39.3591 22.0728 40.425 21.8085 42.1883C21.5178 44.1885 23.7247 45.8203 25.4823 44.886C25.958 44.6228 25.958 44.6228 26.0242 44.886C26.0638 45.0571 26.2091 45.1359 26.4338 45.1359H26.7774V41.1883V37.2405H26.3809H25.9845V38.8065ZM25.5749 40.9118C25.9845 41.2014 25.9845 41.2014 25.9845 42.4515C25.9845 43.5174 25.9448 43.7279 25.7202 43.9516C24.9273 44.7412 23.6058 44.6228 22.945 43.7016C21.9935 42.3594 22.9847 40.425 24.544 40.5698C24.8876 40.596 25.3369 40.754 25.5749 40.9118Z" fill="#CFD4D8"/>
<path d="M68.6955 41.1484L68.7351 45.0699L69.1051 45.1093C69.4619 45.1488 69.4619 45.1357 69.4619 44.4251C69.4619 43.7935 69.5147 43.6356 69.8715 43.2276C70.0962 42.9776 70.3341 42.767 70.387 42.767C70.453 42.767 70.8363 43.2934 71.2459 43.9514C71.9067 45.0041 72.0388 45.1357 72.3824 45.1357C72.5939 45.1357 72.7657 45.0699 72.7657 45.0041C72.7657 44.9251 72.3956 44.2935 71.9331 43.5829C71.4705 42.8855 71.0609 42.2407 71.0081 42.1486C70.9552 42.0564 71.2327 41.6222 71.7085 41.0827C72.1446 40.5694 72.5014 40.122 72.5014 40.0826C72.5014 40.0431 72.3164 40.0036 72.1049 40.0036C71.7613 40.0036 71.5631 40.1879 70.6116 41.3195L69.5279 42.6354L69.4884 39.9378L69.4619 37.2402H69.0655H68.669L68.6955 41.1484Z" fill="#CFD4D8"/>
<path d="M90.8965 41.1488L90.9361 45.0702L91.3061 45.1097L91.6629 45.1492V41.2014V37.2405H91.2666H90.8701L90.8965 41.1488Z" fill="#CFD4D8"/>
<path d="M102.5 41.1879V45.1357H102.83H103.16V41.1879V37.2402H102.83H102.5V41.1879Z" fill="#CFD4D8"/>
<path d="M10.7873 41.4511V45.1357H11.3556C12.5977 45.1357 14.1174 44.8856 14.58 44.5962C15.6901 43.9119 15.6769 42.1485 14.5404 41.5037L14.0911 41.2405L14.4082 41.0563C15.2804 40.5958 15.3596 39.1878 14.58 38.464C13.9853 37.9245 13.3775 37.7666 11.9502 37.7666H10.7873V41.4511ZM13.7738 38.8061C14.2629 39.1088 14.4082 39.622 14.1571 40.2141C13.9456 40.7143 13.417 40.9247 12.3598 40.9247H11.5802V39.7404V38.5561H12.4788C13.1132 38.5561 13.4831 38.6219 13.7738 38.8061ZM13.8268 41.9117C14.0381 42.017 14.2761 42.2275 14.3554 42.3591C14.5007 42.6486 14.5272 43.2934 14.4082 43.6224C14.2629 43.9777 13.5756 44.2277 12.5581 44.3066L11.5802 44.3856V43.0433V41.7143H12.5053C13.0867 41.7143 13.5888 41.7933 13.8268 41.9117Z" fill="#CFD4D8"/>
<path d="M76.5185 40.5563C78.1837 45.3067 78.078 45.0699 78.4611 45.1094C78.7916 45.1489 78.8444 45.0436 80.1395 41.688C80.8795 39.7799 81.5138 38.1218 81.5667 37.9902C81.6328 37.806 81.5667 37.7665 81.2099 37.7665H80.7606L79.6505 40.7273C79.0426 42.3591 78.5141 43.6619 78.4611 43.6224C78.4215 43.5698 77.959 42.2538 77.4569 40.6878L76.5185 37.8324L76.0296 37.7929L75.5406 37.7534L76.5185 40.5563Z" fill="#CFD4D8"/>
<path d="M17.0248 38.3851C17.0645 38.8193 17.1173 38.8852 17.4345 38.9247C17.7781 38.9642 17.7913 38.9378 17.7913 38.4378C17.7913 37.9245 17.7781 37.8982 17.3816 37.8982C16.9984 37.8982 16.9852 37.9245 17.0248 38.3851Z" fill="#CFD4D8"/>
<path d="M82.5711 38.3851C82.6107 38.8193 82.6636 38.8852 82.9808 38.9247C83.3243 38.9642 83.3376 38.9378 83.3376 38.4378C83.3376 37.9245 83.3243 37.8982 82.9279 37.8982C82.5447 37.8982 82.5314 37.9245 82.5711 38.3851Z" fill="#CFD4D8"/>
<path d="M112.147 41.4509V45.0039H115.807H119.481L115.913 41.4509C113.957 39.4903 112.305 37.8979 112.252 37.8979C112.186 37.8979 112.147 39.4903 112.147 41.4509Z" fill="#CFD4D8"/>
<path d="M105.143 39.3457C105.143 39.9642 105.116 40.0037 104.812 40.0037C104.548 40.0037 104.481 40.0695 104.481 40.3327C104.481 40.5959 104.548 40.6616 104.799 40.6616H105.116L105.169 42.5171L105.208 44.3725L105.645 44.7541C106.292 45.3331 107.389 45.2805 107.389 44.662C107.389 44.3725 107.349 44.3462 106.887 44.4252C106.028 44.5568 105.935 44.3593 105.935 42.3592V40.6616H106.662C107.349 40.6616 107.389 40.6485 107.389 40.3327C107.389 40.0168 107.349 40.0037 106.662 40.0037H105.935V39.3457C105.935 38.7009 105.922 38.6877 105.538 38.6877C105.155 38.6877 105.143 38.7009 105.143 39.3457Z" fill="#CFD4D8"/>
<path d="M36.4905 40.03C36.3452 40.109 36.0941 40.2932 35.9355 40.4379L35.6316 40.7011V40.359C35.6316 40.0564 35.5787 40.0037 35.2351 40.0037H34.8387L34.8651 42.5303L34.9047 45.07L35.2748 45.1095L35.6316 45.149V43.3856C35.6316 41.7933 35.658 41.5828 35.9091 41.267C36.517 40.5038 37.4817 40.3195 38.1028 40.8459C38.4728 41.1617 38.4728 41.1749 38.5388 43.1224L38.6049 45.07L38.9749 45.1095L39.3317 45.149L39.3185 43.2672C39.3053 41.1222 39.1864 40.5959 38.5388 40.1616C38.0631 39.8458 36.9663 39.7668 36.4905 40.03Z" fill="#CFD4D8"/>
<path d="M42.1465 40.1221C41.0629 40.6221 40.4285 42.0302 40.7721 43.175C40.9704 43.8198 41.6311 44.5963 42.1993 44.82C42.8205 45.0831 43.8116 45.0436 44.393 44.741L44.882 44.4778V44.9384C44.882 45.57 44.5648 46.1359 44.0891 46.3858C43.5473 46.6622 42.424 46.6359 41.7103 46.307C41.1554 46.0569 41.1157 46.0569 40.9571 46.2675C40.7457 46.5569 40.8382 46.7017 41.499 46.978C42.2786 47.3202 43.1508 47.4254 43.8248 47.2412C44.5648 47.0438 45.3313 46.2937 45.5295 45.5963C45.6088 45.2937 45.6749 43.9778 45.6749 42.5303V40.0036H45.2784C45.0273 40.0036 44.882 40.0695 44.882 40.1879C44.882 40.3327 44.7763 40.3195 44.393 40.1221C43.7719 39.8063 42.86 39.8063 42.1465 40.1221ZM44.2873 40.8327L44.8159 41.1354L44.8556 42.3197C44.8951 43.4777 44.882 43.504 44.4988 43.8724C43.6926 44.6489 42.3314 44.412 41.7103 43.3987C41.1817 42.5303 41.499 41.3459 42.3976 40.7932C42.9658 40.451 43.6398 40.4643 44.2873 40.8327Z" fill="#CFD4D8"/>
<path d="M47.895 40.0824C47.4324 40.3323 47.2607 40.6482 47.2607 41.293C47.2607 41.9114 47.5778 42.2536 48.7407 42.8195C49.4411 43.1616 49.5865 43.2932 49.6129 43.5959C49.679 44.1485 49.3222 44.4775 48.6614 44.4775C48.3575 44.4775 47.9743 44.3854 47.8157 44.267C47.5778 44.109 47.4721 44.0959 47.3267 44.2144C47.036 44.4512 47.0889 44.5828 47.5646 44.8723C48.3708 45.3723 49.7318 45.1486 50.2209 44.4512C50.5115 44.0433 50.4852 43.2669 50.1679 42.8721C50.0226 42.6879 49.5733 42.3721 49.1504 42.1746C47.9346 41.6088 47.6439 41.2141 48.1328 40.7403C48.3708 40.5034 49.1372 40.4639 49.5205 40.6745C49.7186 40.7666 49.8376 40.7666 49.9829 40.6482C50.2604 40.4245 50.2076 40.2929 49.7715 40.0692C49.2825 39.8192 48.3575 39.8192 47.895 40.0824Z" fill="#CFD4D8"/>
<path d="M60.4758 40.017C59.4979 40.4118 58.7711 41.7934 58.9561 42.9383C59.1807 44.2937 60.1454 45.1359 61.4669 45.1359C62.6298 45.1359 63.8192 44.3332 63.3566 43.8594C63.1849 43.7015 63.1056 43.7278 62.7355 44.07C62.3655 44.4122 62.1937 44.4779 61.6387 44.4779C61.2818 44.4779 60.8194 44.3858 60.6079 44.2806C60.2511 44.0963 59.6829 43.241 59.6829 42.8988C59.6829 42.8198 60.3833 42.7672 61.6519 42.7672C63.9381 42.7672 63.9513 42.7672 63.5945 41.5434C63.3831 40.8065 62.8941 40.2407 62.2862 40.017C61.8237 39.8459 60.9251 39.8459 60.4758 40.017ZM62.1277 40.6881C62.4448 40.8328 62.9866 41.6355 62.9866 41.9776C62.9866 42.0566 62.392 42.1092 61.3215 42.1092C59.8547 42.1092 59.6697 42.083 59.7357 41.8987C59.7753 41.7803 59.815 41.6355 59.815 41.5566C59.815 41.4776 60.0265 41.2144 60.2908 40.9775C60.8062 40.4906 61.4669 40.3854 62.1277 40.6881Z" fill="#CFD4D8"/>
<path d="M66.6206 40.0302C66.4753 40.1091 66.2507 40.2934 66.1317 40.4513L65.8939 40.7276V40.3592C65.8939 40.0565 65.841 40.0039 65.4974 40.0039H65.101V42.583V45.1491L65.4709 45.1097L65.8278 45.0702L65.8674 43.2674C65.907 41.4908 65.907 41.4646 66.2771 41.0698C66.5811 40.7408 66.7661 40.6618 67.2022 40.6618C67.7175 40.6618 67.744 40.6355 67.744 40.2671C67.744 39.9117 67.7043 39.8723 67.321 39.8723C67.0832 39.8723 66.7661 39.9512 66.6206 40.0302Z" fill="#CFD4D8"/>
<path d="M86.1788 40.0956C85.5973 40.3982 85.3198 40.6746 85.0291 41.2404C84.7384 41.8194 84.6723 42.8853 84.9102 43.5827C85.082 44.1091 85.7559 44.7933 86.2845 44.9908C87.2756 45.3724 88.7557 44.9908 89.2447 44.2538C89.4165 44.0038 89.4033 43.9512 89.1654 43.8328C88.9539 43.7143 88.835 43.7538 88.5046 44.0827C88.1743 44.4118 88.0157 44.4775 87.4474 44.4775C86.377 44.4775 85.8616 44.1091 85.5841 43.1485L85.4784 42.78L87.4739 42.7406L89.4825 42.7011L89.5222 42.372C89.6411 41.5957 88.9936 40.464 88.2139 40.0692C87.725 39.8192 86.681 39.8324 86.1788 40.0956ZM88.0421 40.7403C88.3989 40.9772 88.7557 41.5694 88.7557 41.9115C88.7557 42.0826 88.5178 42.1089 87.1699 42.1089C85.4255 42.1089 85.3859 42.0826 85.7824 41.3193C86.1656 40.5825 87.3417 40.2929 88.0421 40.7403Z" fill="#CFD4D8"/>
<path d="M97.2527 40.0825C96.738 40.2668 96.6979 40.3062 96.8298 40.5694C96.9226 40.7274 96.989 40.8721 97.0017 40.8852C97.0154 40.8985 97.2664 40.8326 97.5438 40.7274C97.8348 40.622 98.3232 40.5432 98.6406 40.5299C99.3546 40.5299 99.8567 40.9642 99.8567 41.5959C99.8567 42.0038 99.8567 42.0169 99.3019 41.938C98.416 41.8196 97.4774 42.0828 96.989 42.5697C96.6188 42.9381 96.5524 43.096 96.5524 43.6092C96.5524 44.0829 96.6316 44.2935 96.9362 44.6357C97.2527 44.991 97.4119 45.0567 98.1122 45.1093C98.7725 45.162 99.0108 45.1093 99.3937 44.8856C99.9758 44.5436 99.9885 44.5436 99.9885 44.8725C99.9885 45.0699 100.081 45.1357 100.332 45.1357H100.662L100.623 42.9644L100.583 40.7931L100.16 40.3721C99.7512 39.9773 99.6447 39.9378 98.7725 39.9115C98.1513 39.8852 97.6102 39.9509 97.2527 40.0825ZM99.4465 42.5828C99.843 42.6618 99.8567 42.7013 99.8567 43.2934C99.8567 43.8856 99.8166 43.9513 99.381 44.2145C98.7862 44.5962 97.9931 44.6224 97.6229 44.2935C97.2928 43.9908 97.24 43.1487 97.5311 42.9117C97.9403 42.5697 98.7198 42.4381 99.4465 42.5828Z" fill="#CFD4D8"/>
<path d="M17.0247 42.5304L17.0644 45.0702L17.4345 45.1097L17.7913 45.1491V42.583V40.0039H17.3948H16.9984L17.0247 42.5304Z" fill="#CFD4D8"/>
<path d="M28.4955 41.438C28.4955 43.4777 28.6541 44.1751 29.2223 44.7146C29.632 45.0831 29.7641 45.1358 30.4249 45.1358C31.1913 45.1358 31.535 45.0173 32.0371 44.5699L32.3279 44.3067V44.7146C32.3279 45.07 32.3807 45.1358 32.6582 45.1358H32.9886V42.5698V40.0037H32.6582H32.3279V41.6091C32.3279 42.9777 32.2882 43.2935 32.0767 43.6093C31.5481 44.4121 30.4909 44.7279 29.8566 44.2805C29.4337 43.9778 29.2884 43.2935 29.2884 41.5433V40.0037H28.8919H28.4955V41.438Z" fill="#CFD4D8"/>
<path d="M51.3574 40.1353C51.3574 40.3722 52.4014 44.5173 52.5467 44.8463C52.6525 45.0963 52.7714 45.1489 53.115 45.1095L53.5379 45.07L54.1457 42.9645L54.7668 40.8591L54.9651 41.5828C55.084 41.9775 55.3484 42.925 55.5597 43.6882C55.9165 44.991 55.9562 45.07 56.313 45.1095C56.5112 45.1358 56.7227 45.1095 56.7887 45.0437C56.8945 44.9384 58.2292 40.359 58.2292 40.0959C58.2292 40.03 58.0706 40.0037 57.8724 40.03C57.542 40.0695 57.5023 40.1485 56.987 42.0697C56.6962 43.1619 56.4187 44.0435 56.3659 44.0173C56.3262 43.9778 56.2469 43.7672 56.1941 43.5304C56.1413 43.2935 55.9298 42.3987 55.6919 41.5433L55.2822 40.0037H54.7933H54.3043L53.7361 42.0434C53.4189 43.1619 53.1282 44.0568 53.0885 44.0173C53.0621 43.9778 52.811 43.0698 52.5467 42.0039C52.0974 40.1353 52.071 40.0695 51.7142 40.03C51.516 40.0037 51.3574 40.0564 51.3574 40.1353Z" fill="#CFD4D8"/>
<path d="M82.5711 42.5304L82.6107 45.0702L82.9807 45.1097L83.3375 45.1491V42.583V40.0039H82.9411H82.5446L82.5711 42.5304Z" fill="#CFD4D8"/>
</g>
</g>
<defs>
<clipPath id="clip0_3729_2450">
<rect width="123.692" height="48" fill="white" transform="translate(0.611755)"/>
</clipPath>
</defs>
</svg>
