<svg width="109" height="48" viewBox="0 0 109 48" fill="none" xmlns="http://www.w3.org/2000/svg">
<g clip-path="url(#clip0_3729_2483)">
<path d="M76.8998 0.0787926C71.2689 0.732641 67.1604 4.9485 65.7942 11.4675C65.6672 12.092 65.5306 12.902 65.5014 13.2631L65.433 13.9267H67.4727H69.5123L69.7367 12.8435C70.3516 9.80841 71.5324 7.40775 73.289 5.57307C74.3234 4.49959 75.1334 3.89453 76.3435 3.28948C80.8717 1.04493 86.5807 2.12817 91.909 6.24644L92.5434 6.73439L92.0066 6.22692C87.3418 1.86468 81.6134 -0.467707 76.8998 0.0787926Z" fill="#CFD4D8"/>
<path d="M24.4845 16.6591C21.8593 17.03 20.0149 18.6011 19.3317 21.0506C19.0878 21.9485 19.0781 24.6322 19.3317 25.5299C19.6441 26.662 20.0637 27.3744 20.9127 28.2332C21.7715 29.1018 22.3278 29.4141 23.5769 29.7556C24.6212 30.0288 27.0414 30.0484 28.0367 29.7947C29.4518 29.4238 30.5156 28.7505 31.2767 27.7355C32.2136 26.5059 32.5161 25.4129 32.5161 23.2952C32.5161 20.914 32.1258 19.7527 30.8864 18.4547C30.0959 17.6155 29.081 17.0495 27.9392 16.8055C27.0706 16.62 25.3042 16.542 24.4845 16.6591ZM27.0706 19.86C27.6269 20.1431 28.1539 20.7969 28.3588 21.441C28.593 22.1827 28.5833 24.3882 28.349 25.1591C27.9977 26.3303 27.2463 26.9158 26.0167 26.9841C24.4942 27.0719 23.5086 26.2716 23.2061 24.6907C23.0206 23.7636 23.128 21.9191 23.3915 21.2263C23.6452 20.5627 24.2308 19.9479 24.7968 19.7429C25.3823 19.5283 26.5436 19.5868 27.0706 19.86Z" fill="#CFD4D8"/>
<path d="M39.7085 16.6591C37.0833 17.03 35.2389 18.6011 34.5558 21.0506C34.3118 21.9485 34.302 24.6322 34.5558 25.5299C34.8681 26.662 35.2877 27.3744 36.1367 28.2332C36.9956 29.1018 37.5518 29.4141 38.8009 29.7556C39.8451 30.0288 42.2653 30.0484 43.2608 29.7947C44.6758 29.4238 45.7395 28.7505 46.5008 27.7355C47.4376 26.5059 47.7401 25.4129 47.7401 23.2952C47.7401 20.914 47.3497 19.7527 46.1104 18.4547C45.3199 17.6155 44.3049 17.0495 43.1632 16.8055C42.2947 16.62 40.5283 16.542 39.7085 16.6591ZM42.2947 19.86C42.8509 20.1431 43.3779 20.7969 43.5828 21.441C43.817 22.1827 43.8072 24.3882 43.573 25.1591C43.2217 26.3303 42.4703 26.9158 41.2407 26.9841C39.7183 27.0719 38.7326 26.2716 38.4301 24.6907C38.2447 23.7636 38.352 21.9191 38.6155 21.2263C38.8692 20.5627 39.4548 19.9479 40.0208 19.7429C40.6064 19.5283 41.7677 19.5868 42.2947 19.86Z" fill="#CFD4D8"/>
<path d="M62.1444 17.8303V19.0013H63.7546C64.9647 19.0013 65.3745 19.0307 65.4039 19.1184C65.4234 19.1867 65.5307 19.9284 65.6479 20.7677C66.126 24.3492 67.4434 28.3602 69.3172 31.9514C71.0738 35.328 73.0159 37.9922 75.6019 40.5783C77.7392 42.7155 79.4177 44.0038 81.7111 45.2919C86.044 47.7121 90.7674 48.2879 94.4662 46.8631C98.9939 45.1163 102.01 40.793 102.878 34.8011C103.122 33.1908 103.064 32.8005 102.78 34.0301C102.263 36.2747 101.375 38.3143 100.263 39.7879C96.6327 44.6283 90.6795 45.6725 84.424 42.5692C76.9975 38.8803 71.0055 30.068 69.61 20.7872C69.5319 20.2309 69.4636 19.6064 69.4636 19.3917V19.0013H71.3178H73.172V17.8303V16.6592H67.6581H62.1444V17.8303Z" fill="#CFD4D8"/>
<path d="M0.311726 16.9225C0.341003 17.0201 0.985092 19.8892 1.73653 23.2951C2.48797 26.701 3.13206 29.5701 3.16133 29.6579C3.21013 29.8141 3.39554 29.8335 5.15216 29.8335H7.09418L7.24057 29.3163C7.3284 29.0431 7.80659 27.2963 8.32381 25.442C9.31922 21.8215 9.38753 21.597 9.48512 21.8312C9.54371 21.9972 11.6906 29.7262 11.6906 29.7945C11.6906 29.8141 12.5787 29.8335 13.6717 29.8335H15.643L17.0483 23.4122C17.8193 19.8892 18.4731 16.942 18.4927 16.8737C18.5316 16.7859 18.1218 16.7566 16.6287 16.7566C15.5747 16.7566 14.7159 16.7859 14.7159 16.8151C14.7159 16.9908 13.4277 23.6659 13.3692 23.8123C13.3204 23.9391 12.9983 22.9242 12.3836 20.6895C11.876 18.8743 11.4272 17.2445 11.3783 17.0689L11.2905 16.7566H9.39729C8.35309 16.7566 7.4943 16.7762 7.4943 16.7956C7.4943 16.8834 5.523 23.9295 5.49372 23.9684C5.44492 24.0172 5.42541 23.9197 4.81059 20.6602C4.51782 19.0792 4.22506 17.5471 4.16651 17.2641L4.06891 16.7566H2.16592C0.399557 16.7566 0.262931 16.7664 0.311726 16.9225Z" fill="#CFD4D8"/>
<path d="M50.1407 23.2951V29.8531L53.732 29.8043C56.8842 29.775 57.4014 29.7457 58.0455 29.5798C59.1189 29.2968 59.6753 28.9845 60.3876 28.2721C61.5685 27.0913 61.9295 26.0862 62.0174 23.783C62.0564 22.4948 62.0369 22.124 61.871 21.3043C61.3928 19.0109 60.1339 17.5471 58.2017 17.0103C57.5868 16.8444 57.0989 16.8152 53.8296 16.7761L50.1407 16.7371V23.2951ZM56.3767 19.938C57.0111 20.1235 57.5673 20.6504 57.8015 21.3043C58.026 21.9484 58.1138 23.9587 57.9479 24.7784C57.6356 26.3594 57.0013 26.8083 55.0495 26.8083H54.0443V23.2951V19.7818H54.9519C55.4887 19.7818 56.0742 19.8404 56.3767 19.938Z" fill="#CFD4D8"/>
<path d="M89.6157 16.8248C87.0199 17.2348 85.2437 18.8548 84.5801 21.4116C84.1605 23.0609 84.2385 25.3054 84.7753 26.8864C85.3023 28.4185 86.2684 29.6091 87.5078 30.2629C88.4935 30.7802 89.1375 30.9168 90.4941 30.9168C91.87 30.9168 92.8268 30.7021 93.929 30.1653L94.6416 29.814V28.0672V26.3204L94.1727 26.6521C91.6846 28.438 89.0594 28.0476 87.9665 25.7348C87.5859 24.9248 87.498 23.6268 87.7518 22.6802C88.2201 20.9626 89.8207 19.8404 91.5675 20.0063C92.3579 20.0843 92.8555 20.2698 93.6945 20.826C94.0758 21.0798 94.4265 21.314 94.4755 21.3237C94.5142 21.3433 94.5345 20.5528 94.5244 19.5769L94.4948 17.7812L93.8413 17.5275C92.5239 16.9908 90.5721 16.6688 89.6157 16.8248Z" fill="#CFD4D8"/>
<path d="M74.7332 23.8807V30.8096H78.7832H82.8332V29.4433V28.077H80.3935H77.9537V26.5645V25.0518H80.2471H82.5404V23.6856V22.3193H80.2471H77.9537V21.0018V19.6844H80.3446H82.7356V18.3182V16.9519H78.7344H74.7332V23.8807Z" fill="#CFD4D8"/>
<path d="M96.8865 23.8807V30.8096H98.4964H100.106V28.1258V25.4422H102.595H105.083V28.1258V30.8096H106.694H108.304V23.8807V16.9519H106.694H105.083V19.538V22.1241H102.595H100.106V19.538V16.9519H98.4964H96.8865V23.8807Z" fill="#CFD4D8"/>
<path d="M103.054 32.6638C103.054 32.8493 103.073 32.9274 103.103 32.8297C103.122 32.7419 103.122 32.5857 103.103 32.4882C103.073 32.4004 103.054 32.4784 103.054 32.6638Z" fill="#CFD4D8"/>
<path d="M4.1274 33.4347C3.32717 33.6298 2.55621 34.2641 2.26344 34.9668C1.90236 35.8256 1.93164 37.3675 2.31224 38.1092C2.55621 38.5776 3.16126 39.1534 3.59066 39.3388C4.94715 39.8951 6.40124 39.4364 7.03556 38.2263L7.30881 37.6896L7.03556 37.5822C6.88918 37.5139 6.62569 37.4358 6.45003 37.3968C6.15726 37.3383 6.12799 37.3577 6.00112 37.6603C5.92304 37.8457 5.71811 38.119 5.53268 38.2653C5.23992 38.5093 5.15209 38.5386 4.63486 38.4996C4.11764 38.4605 4.01029 38.4215 3.72728 38.1092C3.35645 37.6896 3.2003 37.2211 3.2003 36.4307C3.2003 35.65 3.35645 35.1718 3.74681 34.8009C4.02981 34.5277 4.16644 34.4788 4.63486 34.4496C5.32775 34.4008 5.75714 34.6252 5.94257 35.1424C6.03039 35.3864 6.11822 35.4841 6.22557 35.4547C6.30365 35.4255 6.55737 35.3767 6.79159 35.3475C7.1917 35.2791 7.21123 35.2596 7.15267 35.0156C6.8599 33.8543 5.45462 33.1126 4.1274 33.4347Z" fill="#CFD4D8"/>
<path d="M37.1616 36.5187V39.5927H37.6983H38.2351V36.5187V33.4446H37.6983H37.1616V36.5187Z" fill="#CFD4D8"/>
<path d="M45.7494 33.9813V34.518H46.2861H46.8229V33.9813V33.4446H46.2861H45.7494V33.9813Z" fill="#CFD4D8"/>
<path d="M41.7775 33.9519C41.2798 34.2349 41.2603 34.2545 41.2603 34.6741C41.2603 35.0645 41.2407 35.1035 41.0163 35.1035C40.7918 35.1035 40.7723 35.1426 40.7723 35.5426C40.7723 35.9428 40.7918 35.9818 41.0163 35.9818H41.2603L41.2701 37.3187C41.2798 38.0604 41.309 38.7923 41.3481 38.9485C41.4457 39.4072 41.8556 39.6414 42.5386 39.6317C42.8607 39.6219 43.1633 39.5828 43.212 39.534C43.2511 39.4853 43.2609 39.29 43.2316 39.1047C43.173 38.7923 43.1339 38.763 42.8217 38.763H42.4801L42.4509 37.3675L42.4216 35.9818H42.8217H43.212V35.5426V35.1035H42.8217H42.4313V34.3715C42.4313 33.9714 42.402 33.6396 42.363 33.6494C42.3142 33.6494 42.0507 33.786 41.7775 33.9519Z" fill="#CFD4D8"/>
<path d="M11.4857 35.094C10.3536 35.4453 9.75832 36.3529 9.86568 37.602C9.93399 38.4511 10.256 38.9781 10.9293 39.3489C11.6027 39.7197 12.5006 39.749 13.1252 39.4172C13.6131 39.1635 14.101 38.5975 14.2279 38.129C14.384 37.5922 14.3352 36.753 14.1401 36.3139C13.7107 35.3673 12.4712 34.8012 11.4857 35.094ZM12.6469 36.0406C12.9885 36.2748 13.1739 36.7335 13.1739 37.3483C13.1739 38.2656 12.764 38.8122 12.081 38.8122C11.388 38.8122 11.0074 38.2949 11.0074 37.3483C11.0074 36.4017 11.388 35.8845 12.081 35.8845C12.2761 35.8845 12.5299 35.9528 12.6469 36.0406Z" fill="#CFD4D8"/>
<path d="M18.8733 35.1523C18.6683 35.2207 18.3755 35.4061 18.2194 35.5525L17.9364 35.8257V35.4647V35.1036H17.3997H16.8629V37.3481V39.5927H17.4485H18.034V38.2459C18.034 36.3039 18.2097 35.8843 19.0197 35.8843C19.6735 35.8843 19.7418 36.06 19.771 37.9434L19.8003 39.5927H20.3956H20.9812L20.9421 37.8068C20.8933 35.7477 20.8153 35.5036 20.1516 35.1913C19.6637 34.9766 19.3905 34.9669 18.8733 35.1523Z" fill="#CFD4D8"/>
<path d="M24.7383 35.1134C23.7917 35.3379 23.3427 36.1771 23.7428 36.9579C23.9283 37.3287 24.3967 37.5628 25.4408 37.8264C26.2314 38.0215 26.4265 38.1289 26.4265 38.3924C26.4265 38.6071 25.9972 38.812 25.5678 38.812C25.07 38.812 24.8163 38.6949 24.6504 38.3924C24.5333 38.1874 24.4845 38.1777 24.0161 38.2558C23.6843 38.3045 23.4989 38.3826 23.4989 38.4704C23.4989 38.6851 24.0942 39.3195 24.4259 39.4561C25.314 39.8172 26.5144 39.6903 27.0901 39.1634C27.3829 38.89 27.4414 38.773 27.4805 38.3143C27.5195 37.8361 27.4903 37.7385 27.2561 37.4653C27.0023 37.153 26.7388 37.0554 25.2067 36.6455C24.3674 36.4211 24.504 35.8843 25.4019 35.8843C25.8508 35.8843 25.9581 35.9234 26.1533 36.1575C26.368 36.4113 26.407 36.4211 26.8755 36.343C27.3146 36.2747 27.3731 36.2356 27.3342 36.0698C27.3048 35.9624 27.1389 35.7282 26.9731 35.5526C26.5339 35.0841 25.6263 34.9084 24.7383 35.1134Z" fill="#CFD4D8"/>
<path d="M51.6633 35.1523C51.4582 35.2207 51.1655 35.4061 51.0094 35.5525L50.7263 35.8257V35.4647V35.1036H50.1897H49.6529V37.3481V39.5927H50.2384H50.8239V38.2459C50.8239 36.3039 50.9996 35.8843 51.8096 35.8843C52.4635 35.8843 52.5318 36.06 52.561 37.9434L52.5903 39.5927H53.1856H53.7711L53.7322 37.8068C53.6833 35.7477 53.6052 35.5036 52.9416 35.1913C52.4537 34.9766 52.1805 34.9669 51.6633 35.1523Z" fill="#CFD4D8"/>
<path d="M57.7332 35.1036C57.2941 35.2305 56.8843 35.5818 56.65 36.0112C56.4743 36.343 56.4353 36.5772 56.4353 37.2994C56.4353 38.0606 56.4646 38.2362 56.6792 38.6168C57.2453 39.6123 58.4749 39.8757 59.2556 39.1536L59.5094 38.9193V39.4951C59.5094 40.2759 59.324 40.471 58.592 40.471C58.1724 40.471 58.026 40.432 57.9284 40.2856C57.8406 40.1587 57.5966 40.0709 57.1673 40.0025C56.8159 39.9538 56.5231 39.9148 56.5134 39.9245C56.4158 40.0123 56.7476 40.7052 56.972 40.9004C57.7723 41.564 59.7534 41.4274 60.3194 40.6564C60.6219 40.2368 60.6804 39.7391 60.6804 37.3677V35.1036H60.1437H59.607V35.4159V35.7184L59.3825 35.5134C58.9336 35.0841 58.2992 34.9279 57.7332 35.1036ZM59.0311 35.9819C59.3434 36.1576 59.5094 36.6064 59.5094 37.3189C59.5094 37.9923 59.3923 38.3045 59.0215 38.5876C58.836 38.734 58.2895 38.7534 58.026 38.607C57.4015 38.2753 57.3917 36.3528 58.0162 35.9917C58.2407 35.8647 58.7872 35.8551 59.0311 35.9819Z" fill="#CFD4D8"/>
<path d="M30.2521 36.8795C30.2911 38.9484 30.3692 39.1923 31.0425 39.5046C31.267 39.6022 31.5403 39.69 31.6476 39.69C32.0477 39.69 32.5942 39.4753 32.9163 39.1825L33.2578 38.8897V39.2411V39.5924H33.7458H34.2337V37.3478V35.1033H33.6969H33.1603V36.3427C33.1603 37.9042 33.1017 38.2652 32.7894 38.5678C32.4478 38.9093 31.8818 38.9093 31.6086 38.558C31.4231 38.314 31.4037 38.1676 31.4037 36.7038V35.1033H30.8084H30.2131L30.2521 36.8795Z" fill="#CFD4D8"/>
<path d="M45.7494 37.3481V39.5926H46.2861H46.8229V37.3481V35.1035H46.2861H45.7494V37.3481Z" fill="#CFD4D8"/>
</g>
<defs>
<clipPath id="clip0_3729_2483">
<rect width="108" height="48" fill="white" transform="translate(0.304077)"/>
</clipPath>
</defs>
</svg>
